<svg width="52" height="48" viewBox="0 0 52 48" fill="none" xmlns="http://www.w3.org/2000/svg">
<path d="M46.2379 47.3808C47.9563 47.3733 49.3433 45.9743 49.3358 44.2559C49.3283 42.5375 47.9293 41.1506 46.2109 41.1581L3.13558 41.3453C1.41723 41.3527 0.0302722 42.7518 0.03774 44.4701C0.0452079 46.1885 1.44427 47.5754 3.16263 47.568L46.2379 47.3808Z" fill="#0084FF"/>
<path d="M34.2549 26.5814L23.6358 10.1127L19.8348 17.5058C19.5983 17.9484 19.2751 18.3389 18.8846 18.654C18.494 18.9691 18.044 19.2024 17.5613 19.3399C17.0787 19.4774 16.5733 19.5163 16.0753 19.4544C15.5773 19.3924 15.0969 19.2309 14.6626 18.9793C13.7815 18.4535 13.1392 17.6057 12.8714 16.6151C12.6036 15.6244 12.7314 14.5685 13.2276 13.6703L19.7536 1.81599L19.8104 1.71458C20.0271 1.23669 20.3686 0.82601 20.7988 0.525693C21.2291 0.225375 21.7323 0.0465161 22.2556 0.0079151C22.7789 -0.0306859 23.3029 0.0723969 23.7726 0.306328C24.2423 0.54026 24.6403 0.8964 24.9248 1.33732L39.1633 23.4172C39.5829 24.0681 39.7268 24.8591 39.5632 25.616C39.3996 26.373 38.9421 27.0339 38.2912 27.4535C37.6403 27.8731 36.8493 28.017 36.0924 27.8534C35.3354 27.6898 34.6745 27.2323 34.2549 26.5814Z" fill="#0084FF"/>
<path d="M49.2381 46.487C48.9307 46.686 48.5871 46.8225 48.2269 46.8885C47.8667 46.9546 47.497 46.949 47.139 46.8721C46.781 46.7952 46.4416 46.6484 46.1403 46.4402C45.8391 46.232 45.5818 45.9665 45.3833 45.6588L38.9099 35.6262C38.509 35.0048 38.3713 34.2497 38.5272 33.5269C38.683 32.8041 39.1196 32.1728 39.741 31.7719C40.3623 31.371 41.1174 31.2334 41.8402 31.3892C42.563 31.5451 43.1943 31.9817 43.5952 32.603L50.0686 42.6356C50.4692 43.2565 50.6068 44.011 50.451 44.7333C50.2953 45.4556 49.859 46.0864 49.2381 46.487Z" fill="#0084FF"/>
<path d="M7.47417 25.7633C7.85692 24.9177 8.55985 24.2587 9.42839 23.9312C10.2969 23.6037 11.26 23.6345 12.1058 24.0169C12.9517 24.3997 13.6109 25.1028 13.9384 25.9716C14.2659 26.8404 14.2348 27.8037 13.8521 28.6496L6.68922 44.4803C6.30646 45.326 5.60354 45.985 4.735 46.3125C3.86646 46.6399 2.90342 46.6091 2.05763 46.2267C1.21174 45.8439 0.552531 45.1408 0.225028 44.2721C-0.102476 43.4033 -0.071452 42.44 0.311275 41.5941L7.47417 25.7633Z" fill="#0084FF"/>
<path d="M50.467 23.9075L42.2454 22.9948L45.5789 30.7104L50.467 23.9075ZM2.36621 9.2207L3.95943 17.4941L10.1903 11.9498L2.36621 9.2207ZM34.6657 31.0045L34.9192 31.687L34.9547 31.6728L34.6657 31.0045ZM44.2808 25.8881L34.3756 30.3362L34.9527 31.6728L44.8578 27.2248L44.2808 25.8881ZM34.4121 30.322L28.023 32.7843L28.5301 34.1504L34.9192 31.687L34.4121 30.322ZM16.0409 24.086L7.14485 13.6921L6.06581 14.6525L14.9619 25.0464L16.0409 24.086ZM22.1379 31.2661L16.0429 24.088L14.9598 25.0444L21.0569 32.2215L22.1379 31.2661ZM23.3164 32.2996C22.8749 32.015 22.4778 31.6667 22.1379 31.2661L21.0569 32.2215C21.4886 32.7302 21.993 33.1723 22.5537 33.5338L23.3164 32.2996ZM28.0281 32.7853C27.2601 33.0817 26.4328 33.1922 25.614 33.1078C24.7951 33.0234 24.0078 32.7464 23.3164 32.2996L22.5517 33.5348C23.4297 34.1022 24.4296 34.4538 25.4695 34.561C26.5094 34.6682 27.5599 34.5278 28.5352 34.1514L28.0281 32.7853Z" fill="#0084FF"/>
</svg>
