<svg xmlns="http://www.w3.org/2000/svg" width="27" height="27" viewBox="0 0 27 27">
  <g id="Icon_ionic-ios-expand" data-name="Icon ionic-ios-expand" transform="translate(-4.5 -4.5)">
    <path id="Path_3339" data-name="Path 3339" d="M7.9,6.469h5.463a.975.975,0,0,0,.977-.977V5.477a.975.975,0,0,0-.977-.977H5.477a.975.975,0,0,0-.977.977v7.889a.975.975,0,0,0,.977.977h.014a.975.975,0,0,0,.977-.977V7.9L14.7,16.08a.967.967,0,0,0,.689.281.946.946,0,0,0,.689-.288.976.976,0,0,0,0-1.378Z"/>
    <path id="Path_3340" data-name="Path 3340" d="M30.523,4.5H22.634a.975.975,0,0,0-.977.977v.014a.975.975,0,0,0,.977.977H28.1L19.92,14.7A.977.977,0,0,0,21.3,16.087L29.531,7.9v5.463a.975.975,0,0,0,.977.977h.014a.975.975,0,0,0,.977-.977V5.477A.975.975,0,0,0,30.523,4.5Z"/>
    <path id="Path_3341" data-name="Path 3341" d="M15.391,19.631a.967.967,0,0,0-.689.281L6.469,28.746V22.634a.975.975,0,0,0-.977-.977H5.477a.975.975,0,0,0-.977.977v7.889a.975.975,0,0,0,.977.977h7.889a.975.975,0,0,0,.977-.977v-.014a.975.975,0,0,0-.977-.977h-5.3L16.08,21.3a.977.977,0,0,0-.689-1.666Z"/>
    <path id="Path_3342" data-name="Path 3342" d="M30.523,21.656h-.014a.975.975,0,0,0-.977.977V28.1L21.3,19.92a.967.967,0,0,0-.689-.281.946.946,0,0,0-.689.288.976.976,0,0,0,0,1.378L28.1,29.531H22.634a.975.975,0,0,0-.977.977v.014a.975.975,0,0,0,.977.977h7.889a.975.975,0,0,0,.977-.977V22.634A.975.975,0,0,0,30.523,21.656Z"/>
  </g>
</svg>
