<svg xmlns="http://www.w3.org/2000/svg" width="13.87" height="14" viewBox="0 0 13.87 14">
  <g id="Group_1310" data-name="Group 1310" transform="translate(-2 -3)">
    <g id="Group_1309" data-name="Group 1309">
      <g id="Group_1308" data-name="Group 1308">
        <path id="Path_1157" data-name="Path 1157" d="M9.38,10.05A6.955,6.955,0,0,1,9.76,3,7,7,0,0,0,3,9.99a7.359,7.359,0,0,0,.1,1.16A3.031,3.031,0,0,1,4,11a3.016,3.016,0,0,1,2.24,1.01,2.494,2.494,0,0,1,1.22,4.51,7.178,7.178,0,0,0,2.55.48,7.007,7.007,0,0,0,5.86-3.17A6.978,6.978,0,0,1,9.38,10.05Z" fill="#7b68ee"/>
      </g>
      <path id="Path_1158" data-name="Path 1158" d="M6,13H5.73A2,2,0,1,0,4,16H6a1.5,1.5,0,0,0,0-3Z" fill="#7b68ee"/>
    </g>
  </g>
</svg>
