<svg width="22" height="22" viewBox="0 0 22 22" fill="none" xmlns="http://www.w3.org/2000/svg">
<path d="M9.52083 15.6H10.0417V11.65H9.52083C9.23318 11.65 9 11.4052 9 11.1031V9.79688C9 9.49484 9.23318 9.25 9.52083 9.25H12.4375C12.7252 9.25 12.9583 9.49484 12.9583 9.79688V15.6H13.4792C13.7668 15.6 14 15.8448 14 16.1469V17.4531C14 17.7552 13.7668 18 13.4792 18H9.52083C9.23318 18 9 17.7552 9 17.4531V16.1469C9 15.8448 9.23318 15.6 9.52083 15.6ZM11.5 4C10.4645 4 9.625 4.88143 9.625 5.96875C9.625 7.05607 10.4645 7.9375 11.5 7.9375C12.5355 7.9375 13.375 7.05607 13.375 5.96875C13.375 4.88143 12.5355 4 11.5 4Z" fill="#7B68EE"/>
<circle cx="11" cy="11" r="10.5" stroke="#7B68EE"/>
</svg>
