<svg xmlns="http://www.w3.org/2000/svg" width="22.999" height="25" viewBox="0 0 22.999 25">
  <g id="Group_2306" data-name="Group 2306" transform="translate(-403.251 -453.238)">
    <path id="Path_2031" data-name="Path 2031" d="M11.675,25.66A3.124,3.124,0,0,0,14.8,22.535H8.551A3.124,3.124,0,0,0,11.675,25.66Zm10.517-7.31c-.943-1.014-2.708-2.538-2.708-7.534A7.711,7.711,0,0,0,13.236,3.24V2.223a1.562,1.562,0,1,0-3.123,0V3.24a7.711,7.711,0,0,0-6.247,7.576c0,5-1.765,6.52-2.708,7.534a1.526,1.526,0,0,0-.42,1.06A1.564,1.564,0,0,0,2.3,20.973h18.74a1.564,1.564,0,0,0,1.567-1.562,1.525,1.525,0,0,0-.42-1.06Z" transform="translate(402.514 452.578)" fill="#9782f1"/>
    <circle id="Ellipse_155" data-name="Ellipse 155" cx="5.125" cy="5.125" r="5.125" transform="translate(416 466.058)" fill="#fff"/>
    <g id="Icon_ionic-ios-timer" data-name="Icon ionic-ios-timer" transform="matrix(-0.309, 0.951, -0.951, -0.309, 426.25, 468.326)">
      <path id="Path_1143" data-name="Path 1143" d="M4.187,8.375a4.187,4.187,0,0,1-2.906-7.2.336.336,0,0,1,.467.484A3.514,3.514,0,1,0,4.522.689V2a.337.337,0,1,1-.674,0V.337A.337.337,0,0,1,4.185,0a4.187,4.187,0,0,1,0,8.375Z" fill="#6e698b"/>
      <path id="Path_1144" data-name="Path 1144" d="M.332.039l2.083,1.5a.63.63,0,1,1-.733,1.026.609.609,0,0,1-.147-.147L.039.332A.21.21,0,0,1,.332.039Z" transform="translate(2.178 2.178)" fill="#6e698b"/>
    </g>
  </g>
</svg>
