<svg xmlns="http://www.w3.org/2000/svg" width="21.91" height="24.372" viewBox="0 0 21.91 24.372">
  <g id="Group_10364" data-name="Group 10364" transform="translate(7925.095 14909)">
    <path id="Icon_awesome-mobile-alt" data-name="Icon awesome-mobile-alt" d="M12.948,0H2.285A2.285,2.285,0,0,0,0,2.285v19.8a2.285,2.285,0,0,0,2.285,2.285H12.948a2.285,2.285,0,0,0,2.285-2.285V2.285A2.285,2.285,0,0,0,12.948,0ZM7.616,22.849a1.523,1.523,0,1,1,1.523-1.523A1.522,1.522,0,0,1,7.616,22.849Zm5.331-5.141a.573.573,0,0,1-.571.571H2.856a.573.573,0,0,1-.571-.571V2.856a.573.573,0,0,1,.571-.571h9.52a.573.573,0,0,1,.571.571Z" transform="translate(-7925.095 -14909)" fill="#9782f1"/>
    <circle id="Ellipse_155" data-name="Ellipse 155" cx="6.677" cy="6.677" r="6.677" transform="translate(-7916.54 -14897.982)" fill="#fff"/>
    <path id="Path_2031" data-name="Path 2031" d="M5.767,12.135A1.437,1.437,0,0,0,7.2,10.7H4.331a1.437,1.437,0,0,0,1.437,1.437ZM10.6,8.774A4.178,4.178,0,0,1,9.358,5.309,3.546,3.546,0,0,0,6.485,1.826V1.358a.718.718,0,1,0-1.436,0v.468A3.546,3.546,0,0,0,2.176,5.309,4.175,4.175,0,0,1,.931,8.774a.7.7,0,0,0-.193.487.719.719,0,0,0,.718.719h8.617a.719.719,0,0,0,.721-.718.7.7,0,0,0-.193-.487Z" transform="translate(-7915.676 -14897.959)" fill="#ffa633"/>
  </g>
</svg>
