<?xml version="1.0" standalone="no"?>
<!DOCTYPE svg PUBLIC "-//W3C//DTD SVG 1.0//EN" "http://www.w3.org/TR/2001/REC-SVG-20010904/DTD/svg10.dtd">
<svg xmlns="http://www.w3.org/2000/svg" xmlns:xlink="http://www.w3.org/1999/xlink" id="body_1" width="150" height="150">

<g transform="matrix(2.7173915 0 0 2.7173915 -0 22.826086)">
	<g>
        <path d="M2.87 38.4L52.329998 38.4C 53.92 38.31 55.199997 36.980003 55.199997 35.370003L55.199997 35.370003L55.199997 3.03C 55.199997 1.37 53.85 0.00999999 52.19 0L52.19 0L3.01 0C 1.35 0.01 0 1.37 0 3.03L0 3.03L0 35.36C 0 36.98 1.28 38.31 2.87 38.4z" stroke="none" fill="#FEFEFE" fill-rule="nonzero" />
        <path d="M23.74 23.03L23.74 38.4L31.42 38.4L31.42 23.03L55.2 23.03L55.2 15.35L31.42 15.35L31.42 0L23.74 0L23.74 15.35L0 15.35L0 23.03L23.74 23.03L23.74 23.03" stroke="none" fill="#C8102E" fill-rule="nonzero" />
        <path d="M33.98 12.43L33.98 0L52.21 0C 53.469997 0.02 54.55 0.81 54.989998 1.92L54.989998 1.92L33.98 12.43z" stroke="none" fill="#012169" fill-rule="nonzero" />
        <path d="M33.98 25.97L33.98 38.4L52.33 38.4C 53.54 38.33 54.56 37.550003 54.99 36.480003L54.99 36.480003L33.98 25.97z" stroke="none" fill="#012169" fill-rule="nonzero" />
        <path d="M21.18 25.97L21.18 38.4L2.87 38.4C 1.6599998 38.33 0.6299999 37.550003 0.2099998 36.460003L0.2099998 36.460003L21.18 25.97z" stroke="none" fill="#012169" fill-rule="nonzero" />
        <path d="M21.18 12.43L21.18 0L2.99 0C 1.73 0.02 0.64 0.82 0.21 1.94L0.21 1.94L21.18 12.43z" stroke="none" fill="#012169" fill-rule="nonzero" />
        <path d="M0 12.8L7.65 12.8L0 8.97L0 12.8L0 12.8" stroke="none" fill="#012169" fill-rule="nonzero" />
        <path d="M55.2 12.8L47.51 12.8L55.2 8.95L55.2 12.8L55.2 12.8" stroke="none" fill="#012169" fill-rule="nonzero" />
        <path d="M55.2 25.6L47.51 25.6L55.2 29.45L55.2 25.6L55.2 25.6" stroke="none" fill="#012169" fill-rule="nonzero" />
        <path d="M0 25.6L7.65 25.6L0 29.43L0 25.6L0 25.6" stroke="none" fill="#012169" fill-rule="nonzero" />
        <path d="M55.2 3.25L36.15 12.8L40.41 12.8L55.2 5.4L55.2 3.25L55.2 3.25" stroke="none" fill="#C8102E" fill-rule="nonzero" />
        <path d="M19.01 25.6L14.75 25.6L0 32.98L0 35.13L19.05 25.6L19.01 25.6L19.01 25.6" stroke="none" fill="#C8102E" fill-rule="nonzero" />
        <path d="M10.52 12.81L14.78 12.81L0 5.41L0 7.55L10.52 12.81L10.52 12.81" stroke="none" fill="#C8102E" fill-rule="nonzero" />
        <path d="M44.63 25.59L40.37 25.59L55.2 33.02L55.2 30.88L44.63 25.59L44.63 25.59" stroke="none" fill="#C8102E" fill-rule="nonzero" />
	</g>
</g>
</svg>