<?xml version="1.0" standalone="no"?>
<!DOCTYPE svg PUBLIC "-//W3C//DTD SVG 1.0//EN" "http://www.w3.org/TR/2001/REC-SVG-20010904/DTD/svg10.dtd">
<svg xmlns="http://www.w3.org/2000/svg" xmlns:xlink="http://www.w3.org/1999/xlink" id="body_1" width="150" height="150">

<g transform="matrix(2.7173915 0 0 2.7173915 -0 22.826086)">
	<g>
        <path d="M52.17 0L3.03 0C 1.36 0 0 1.36 0 3.03L0 3.03L0 35.36C 0 37.03 1.36 38.39 3.03 38.39L3.03 38.39L52.16 38.39C 53.829998 38.39 55.19 37.02 55.19 35.36L55.19 35.36L55.19 3.03C 55.2 1.36 53.83 0 52.17 0z" stroke="none" fill="#00008B" fill-rule="nonzero" />
        <path d="M16.07 22.94L17.08 26.1L20.19 24.92L18.35 27.7L21.21 29.39L17.9 29.68L18.36 32.98L16.07 30.56L13.77 32.98L14.23 29.68L10.92 29.39L13.78 27.7L11.94 24.92L15.05 26.1L16.07 22.94L16.07 22.94" stroke="none" fill="#FFFFFF" fill-rule="nonzero" />
        <path d="M43.16 28.64L43.64 30.14L45.12 29.58L44.25 30.9L45.61 31.71L44.03 31.85L44.25 33.42L43.16 32.27L42.07 33.42L42.28 31.85L40.71 31.71L42.07 30.9L41.19 29.58L42.67 30.14L43.16 28.64L43.16 28.64" stroke="none" fill="#FFFFFF" fill-rule="nonzero" />
        <path d="M43.16 5.17L43.64 6.67L45.12 6.11L44.25 7.43L45.61 8.24L44.03 8.38L44.25 9.95L43.16 8.8L42.07 9.95L42.28 8.38L40.71 8.24L42.07 7.43L41.19 6.11L42.67 6.67L43.16 5.17L43.16 5.17" stroke="none" fill="#FFFFFF" fill-rule="nonzero" />
        <path d="M36.25 14.7L36.74 16.21L38.22 15.65L37.34 16.97L38.7 17.78L37.13 17.91L37.34 19.48L36.25 18.33L35.16 19.48L35.38 17.91L33.8 17.78L35.16 16.97L34.29 15.65L35.77 16.21L36.25 14.7L36.25 14.7" stroke="none" fill="#FFFFFF" fill-rule="nonzero" />
        <path d="M50.98 12.35L51.47 13.86L52.95 13.3L52.07 14.62L53.43 15.43L51.86 15.57L52.07 17.13L50.98 15.99L49.89 17.13L50.11 15.57L48.53 15.43L49.89 14.62L49.02 13.3L50.5 13.86L50.98 12.35L50.98 12.35" stroke="none" fill="#FFFFFF" fill-rule="nonzero" />
        <path d="M46.68 19.42L47.06 20.36L48.07 20.43L47.3 21.08L47.54 22.07L46.68 21.54L45.82 22.07L46.06 21.08L45.28 20.43L46.3 20.36L46.68 19.42L46.68 19.42" stroke="none" fill="#FFFFFF" fill-rule="nonzero" />
        <path d="M0.23 1.87L27.85 15.68L31.36 15.68L31.36 13.93L3.51 0L3.03 0C 1.78 0 0.69 0.77 0.23 1.87zM31.36 0L31.36 1.75L3.51 15.68L0 15.68L0 13.93L27.85 0L31.36 0z" stroke="none" fill="#FFFFFF" fill-rule="nonzero" />
        <path d="M13.07 0L13.07 15.68L18.3 15.68L18.3 0L13.07 0zM0 5.23L0 10.46L31.36 10.46L31.36 5.23L0 5.23z" stroke="none" fill="#FFFFFF" fill-rule="nonzero" />
        <path d="M0 6.27L0 9.41L31.36 9.41L31.36 6.27L0 6.27zM14.11 0L14.11 15.68L17.25 15.68L17.25 0L14.11 0z" stroke="none" fill="#FF0000" fill-rule="nonzero" />
        <path d="M0 15.68L10.45 10.450001L12.79 10.450001L2.34 15.68L0 15.68zM0.48 1.41C 0.68 1.0999999 0.92999995 0.83 1.22 0.60999995L1.22 0.60999995L10.46 5.23L8.12 5.23L0.48 1.41zM18.57 5.23L29.02 0L31.36 0L20.9 5.23L18.57 5.23zM31.36 15.68L20.9 10.45L23.24 10.45L31.349998 14.51L31.349998 15.68L31.36 15.68z" stroke="none" fill="#FF0000" fill-rule="nonzero" />
	</g>
</g>
</svg>