<svg xmlns="http://www.w3.org/2000/svg" width="15.325" height="17.909" viewBox="0 0 15.325 17.909">
  <g id="Group_1469" data-name="Group 1469" transform="translate(-1219.958 -395.091)">
    <path id="Icon_ionic-md-flag" data-name="Icon ionic-md-flag" d="M18.433,5.248a15.33,15.33,0,0,1-1.932.164,15.556,15.556,0,0,1-3.174-.475A16.2,16.2,0,0,0,10.052,4.5a6.212,6.212,0,0,0-3.139.522l-.164.113v14.32H8.619v-6.94a11.814,11.814,0,0,1,1.437-.078,15.761,15.761,0,0,1,3.108.6,16.7,16.7,0,0,0,3.384.448,15.456,15.456,0,0,0,1.885-.156c.292-.035.545-.066.779-.105v-8.1C19.017,5.17,18.725,5.213,18.433,5.248Z" transform="translate(1216.072 393.546)" fill="red"/>
    <path id="Icon_ionic-md-flag-2" data-name="Icon ionic-md-flag" d="M18.433,5.248a15.33,15.33,0,0,1-1.932.164,15.556,15.556,0,0,1-3.174-.475A16.2,16.2,0,0,0,10.052,4.5a6.212,6.212,0,0,0-3.139.522l-.164.113v14.32H8.619v-6.94a11.814,11.814,0,0,1,1.437-.078,15.761,15.761,0,0,1,3.108.6,16.7,16.7,0,0,0,3.384.448,15.456,15.456,0,0,0,1.885-.156c.292-.035.545-.066.779-.105v-8.1C19.017,5.17,18.725,5.213,18.433,5.248Z" transform="translate(1213.208 390.591)" fill="#f9bf00"/>
  </g>
</svg>
