<svg xmlns="http://www.w3.org/2000/svg" width="17.435" height="19.372" viewBox="0 0 17.435 19.372">
  <g id="Group_1418" data-name="Group 1418" transform="translate(-1042.622 -239.602)">
    <path id="Icon_material-date-range" data-name="Icon material-date-range" d="M10.312,11.717H8.374v1.937h1.937Zm3.874,0H12.249v1.937h1.937Zm3.874,0H16.123v1.937H18.06ZM20,4.937h-.969V3H17.092V4.937H9.343V3H7.406V4.937H6.437A1.928,1.928,0,0,0,4.51,6.874L4.5,20.434a1.937,1.937,0,0,0,1.937,1.937H20a1.943,1.943,0,0,0,1.937-1.937V6.874A1.943,1.943,0,0,0,20,4.937Zm0,15.5H6.437V9.78H20Z" transform="translate(1038.122 236.602)" fill="#7b68ee"/>
  </g>
</svg>
