<svg xmlns="http://www.w3.org/2000/svg" xmlns:xlink="http://www.w3.org/1999/xlink" width="150" height="150" xmlns:v="https://vecta.io/nano"><style><![CDATA[.B{fill:none}.C{stroke:#000}.D{stroke-width:.09}.E{fill:#c8b32f}.F{stroke-width:.06}.G{fill:#ac1f23}.H{stroke-width:.12}.I{fill:#da4546}.J{stroke-width:.106}.K{fill:#cdcccb}.L{stroke-width:.011}.M{fill:#265eac}.N{fill:#008f6f}]]></style><path d="M8.234 22.826h133.505a8.25 8.25 0 0 1 8.234 8.234h0v87.853c0 4.538-3.723 8.234-8.234 8.234h0H8.234C3.723 127.174 0 123.478 0 118.94h0V31.06c0-4.538 3.723-8.234 8.234-8.234z" fill="#c52026"/><path d="M0 103.478h150V46.522H0v56.957" fill="#ffc60b"/><path d="M27.038 63.016h5.082v-1.332h-5.082v1.332" class="E"/><path d="M27.038 63.016h5.082v-1.332h-5.082v1.332" class="B C D"/><use xlink:href="#B" class="E"/><use xlink:href="#B" class="B C D"/><use xlink:href="#C" class="E"/><use xlink:href="#C" class="B C D"/><use xlink:href="#D" class="E"/><use xlink:href="#D" class="B C D"/><use xlink:href="#E" class="M"/><use xlink:href="#E" class="B C D"/><use xlink:href="#F" class="K"/><use xlink:href="#F" class="B C D"/><use xlink:href="#G" class="M"/><use xlink:href="#G" class="B C D"/><use xlink:href="#H" class="K"/><use xlink:href="#H" class="B C D"/><use xlink:href="#I" class="M"/><use xlink:href="#I" class="B C D"/><use xlink:href="#J" class="E"/><use xlink:href="#J" class="B C D"/><use xlink:href="#K" class="E"/><use xlink:href="#K" class="B C D"/><path d="M26.984 85.245h5.19v-1.332h-5.19v1.332" class="E"/><path d="M26.984 85.245h5.19v-1.332h-5.19v1.332" class="B C D"/><use xlink:href="#L" class="G"/><use xlink:href="#L" class="B C D"/><path d="M27.717 82.609h3.696V64.457h-3.696v18.152" class="K"/><path d="M30.788 64.484v18.098-18.098zm-.435 0v18.098zm-2.636 18.125h3.696V64.457h-3.696v18.152z" class="B C D"/><use xlink:href="#M" class="G"/><use xlink:href="#M" class="B C D"/><use xlink:href="#N" class="G"/><use xlink:href="#N" class="B C D"/><use xlink:href="#O" class="G"/><use xlink:href="#O" class="B C D"/><use xlink:href="#P" class="G"/><use xlink:href="#P" class="B C D"/><path d="M27.201 69.701l.163-.054c.136-.054.272.027.353.19.054.109.027.245-.109.353l-.163.082h0l-.245-.571zm.272.679c.462-.163.761-.353.598-.707-.082-.217-.326-.272-.679-.136h0l-.625.217.543 1.386a1.45 1.45 0 0 1 .19-.082c.054-.027.136-.054.19-.054h0l-.217-.625zm1.44-1.25c-.054.027-.136.027-.19.054-.054 0-.136.027-.19.027h0l.326 1.44 1.005-.19c0-.027-.027-.054-.027-.082v-.082a5.89 5.89 0 0 1-.598.163h0l-.326-1.332zm2.011 1.25c.19-.516.408-1.005.652-1.522-.054 0-.082.027-.109.027h-.136c-.109.38-.272.734-.435 1.087-.19-.353-.408-.679-.543-1.033-.082 0-.163.027-.245.027h-.245l.842 1.413c.027 0 .082-.027.109-.027s.054.027.109.027zm2.092-1.114c.027-.082.082-.136.109-.19-.054-.054-.217-.136-.408-.136-.408-.054-.652.136-.679.38-.054.516.761.462.707.815-.027.136-.163.217-.326.19-.19-.027-.326-.109-.353-.272h0-.054c-.027.082-.054.163-.109.272.109.082.272.109.435.136.408.054.734-.109.761-.408.054-.489-.761-.516-.734-.815 0-.109.109-.19.326-.19.163.027.245.109.299.217h0 .027zm28.017-6.25h5.082v-1.332h-5.082v1.332" class="E"/><path d="M61.033 63.016h5.082v-1.332h-5.082v1.332" class="B C D"/><use xlink:href="#Q" class="E"/><use xlink:href="#Q" class="B C D"/><use xlink:href="#R" class="E"/><use xlink:href="#R" class="B C D"/><use xlink:href="#S" class="E"/><use xlink:href="#S" class="B C D"/><use xlink:href="#T" class="M"/><use xlink:href="#T" class="B C D"/><use xlink:href="#U" class="K"/><use xlink:href="#U" class="B C D"/><use xlink:href="#V" class="M"/><use xlink:href="#V" class="B C D"/><use xlink:href="#W" class="K"/><use xlink:href="#W" class="B C D"/><use xlink:href="#X" class="M"/><use xlink:href="#X" class="B C D"/><use xlink:href="#Y" class="E"/><use xlink:href="#Y" class="B C D"/><use xlink:href="#Z" class="E"/><use xlink:href="#Z" class="B C D"/><path d="M60.978 85.245h5.19v-1.332h-5.19v1.332" class="E"/><path d="M60.978 85.245h5.19v-1.332h-5.19v1.332" class="B C D"/><use xlink:href="#a" class="G"/><use xlink:href="#a" class="B C D"/><path d="M61.739 82.609h3.696V64.457h-3.696v18.152" class="K"/><path d="M64.837 64.457v18.098-18.098zm-.408 0v18.098zm-2.69 18.152h3.696V64.457h-3.696v18.152z" class="B C D"/><use xlink:href="#b" class="G"/><use xlink:href="#b" class="B C D"/><use xlink:href="#c" class="G"/><use xlink:href="#c" class="B C D"/><use xlink:href="#d" class="G"/><use xlink:href="#d" class="B C D"/><use xlink:href="#e" class="G"/><use xlink:href="#e" class="B C D"/><path d="M60.245 70.462c.136-.543.326-1.033.489-1.576-.027 0-.082.027-.109.027h-.109a7.57 7.57 0 0 1-.326 1.114l-.652-.978c-.082.027-.163.027-.245.054-.082 0-.163.027-.245.027L60 70.489c.027 0 .082-.027.109-.027h.136zm1.413-1.576h-.19c-.054 0-.136 0-.19-.027h0l-.027 1.467 1.033.027c0-.027-.027-.054-.027-.082s0-.054.027-.082l-.625.027h0v-1.332zm1.603.244l.489.082v-.082c0-.027 0-.054.027-.082h0l-1.386-.109v.082c0 .027 0 .054-.027.082h.516 0l-.109 1.304h.19c.082 0 .136.027.19.027h0l.109-1.304zm1.277.218c.163.027.353.054.353.245 0 .054 0 .082-.027.109-.054.217-.217.272-.489.217h0l.163-.571zm-.707 1.223c.054 0 .136.027.19.027s.136.027.19.054h0l.163-.679h.027a2.82 2.82 0 0 0 .109.272h0l.217.516c.082.027.163.027.245.054s.163.054.245.054h0l-.082-.163-.326-.679c.245 0 .462-.082.489-.299.027-.136-.027-.245-.163-.353-.109-.082-.299-.109-.408-.136h0l-.543-.109-.353 1.44zm2.229.081l.489-.299-.054.543-.435-.245zm.408.353a1.65 1.65 0 0 1-.082.489c.082.027.136.054.217.109.054.027.136.082.19.109h0l.136-1.658c-.027 0-.054-.027-.082-.054s-.054-.027-.082-.054h0l-1.467.924c.027.027.082.027.109.054s.082.054.109.054l.408-.299h0l.543.326z" class="E"/><use xlink:href="#f" class="K"/><use xlink:href="#f" class="B C H"/><path d="M46.576 81.766c0 2.989-2.554 5.435-5.707 5.435s-5.734-2.418-5.734-5.435h0v-7.609h11.44v7.609z" class="G"/><path d="M45.326 85.109c.571-.489 1.087-1.63 1.277-2.908h0l.027-8.315h-1.332l.027 11.223z" class="E"/><path d="M45.326 85.109c.571-.489 1.087-1.63 1.277-2.908h0l.027-8.315h-1.332l.027 11.223z" class="B C H"/><path d="M46.576 74.158h11.467v-12.69H46.576v12.69" class="K"/><path d="M37.636 86.223c.353.19.842.516 1.386.625h0l-.027-12.989h-1.332v12.364h-.027z" class="E"/><path d="M37.636 86.223c.353.19.842.516 1.386.625h0l-.027-12.989h-1.332v12.364h-.027z" class="B C H"/><path d="M35.136 81.658c.027 1.603.679 2.799 1.304 3.56h0V73.94h-1.277l-.027 7.717z" class="E"/><path d="M35.136 81.658c.027 1.603.679 2.799 1.304 3.56h0V73.94h-1.277l-.027 7.717z" stroke-width=".114" class="B C"/><path d="M40.19 87.147c.516.054.924.054 1.332 0h0V73.886H40.19v13.261z" fill="#c6b52f"/><path d="M40.19 87.147c.516.054.924.054 1.332 0h0V73.886H40.19v13.261z" class="B C H"/><path d="M42.717 86.875c.516-.109 1.114-.435 1.386-.598h0V73.886h-1.332l-.054 12.989z" class="E"/><path d="M42.717 86.875c.516-.109 1.114-.435 1.386-.598h0V73.886h-1.332l-.054 12.989z" class="B C H"/><path d="M35.136 74.158h11.44v-12.69h-11.44v12.69" class="G"/><path d="M35.136 74.158h11.44v-12.69h-11.44v12.69h0zm11.44 7.609c0 2.989-2.554 5.435-5.707 5.435s-5.734-2.418-5.734-5.435h0v-7.609h11.44v7.609z" class="B C H"/><use xlink:href="#g" class="G"/><use xlink:href="#g" class="B C H"/><g class="E"><path d="M52.092 83.533l-.408-.109v-1.033l.408-.109v1.25zm.38 0l.408-.109v-1.033l-.408-.109v1.25zm-.462 1.848c0-.136.109-.245.272-.245.136 0 .272.109.272.245s-.109.245-.272.245c-.136 0-.272-.109-.272-.245zm2.772-5.19l-.109.38h-1.087l-.109-.38h1.304zm-5.027 0l.109.38h1.087l.109-.38h-1.304zm4.783 2.065l.217-.326-.707-.788-.38.163.87.951zm-.299.245l-.38.163-.707-.788.217-.326.87.951zm.516 2.228c-.353.272-.734.462-1.141.598h0l.299.272c.326-.109.652-.299.951-.489h0l-.109-.38zm-.19-.326c-.326.272-.734.462-1.141.598h0l-.082-.38a2.87 2.87 0 0 0 .951-.489h0l.272.272zm1.304-3.261l-.408.082-.027.516c0-.163-.054.516-.054.516h0l.408.136.054-.625h0v-.625h.027zm.353 1.277l.408-.082.054-1.005-.408-.136v.571c0 .217-.027.435-.054.652zm-.489 1.06c-.082-.109-.272-.109-.38-.027s-.136.245-.027.353a.29.29 0 0 0 .38.027c.109-.082.109-.245.027-.353zm-1.467 1.114l.19.326c.326-.19.625-.462.87-.734a.69.69 0 0 0 .598-.109c.272-.217.299-.571.082-.815h0l-.027-.027c.163-.353.272-.734.299-1.141h0-.38a2.88 2.88 0 0 1-.245.978c-.109 0-.217 0-.326.027h0l-.978-1.087-.299.245.978 1.087a.53.53 0 0 0 .027.652c-.245.217-.489.435-.788.598zm-4.293-2.337l-.217-.326.707-.788.38.163-.87.951zm.299.245l.38.163.707-.788-.217-.326-.87.951zm-.516 2.228c.353.272.734.462 1.141.598h0l-.299.272c-.326-.109-.652-.299-.951-.489h0l.109-.38zm.19-.326c.326.272.734.462 1.141.598h0l.082-.38a2.87 2.87 0 0 1-.951-.489h0l-.272.272zm-1.304-3.261l.408.082v.516c0-.163.054.516.054.516h0l-.408.136c-.054-.217-.054-.408-.054-.625h0v-.625zm-.326 1.277l-.408-.082-.054-1.005.408-.136v.571c-.027.217 0 .435.054.652zm.489 1.06a.29.29 0 0 1 .38-.027c.109.082.136.245.027.353a.29.29 0 0 1-.38.027c-.109-.082-.136-.245-.027-.353zm1.44 1.114l-.19.326c-.326-.19-.625-.462-.87-.734-.19.054-.435.027-.598-.109-.272-.217-.299-.571-.054-.815h0l.027-.027c-.163-.353-.272-.734-.299-1.141h0 .38a2.88 2.88 0 0 0 .245.978c.109-.027.217 0 .326.027h0l.978-1.087.299.245-.978 1.087a.53.53 0 0 1-.027.652c.245.217.489.435.761.598zm2.609.543a4.57 4.57 0 0 0 .87-.245h0l.19.326c-.326.136-.679.245-1.033.299-.054.272-.299.462-.598.462s-.543-.19-.598-.462c-.38-.054-.734-.136-1.087-.299h0l.19-.326c.299.109.598.217.924.245.082-.163.19-.272.353-.326h0v-1.603h.38v1.603c.19.054.353.19.408.326zm1.603-5.245v.299h1.06c.054.163.19.299.38.353h0v.924h.38v-.924c.245-.082.435-.299.435-.571v-.109h0-.38c.027.027.027.082.027.109 0 .136-.109.245-.272.245-.136 0-.272-.109-.272-.245 0-.054 0-.082.027-.109h0l-1.386.027zm-.652 0v.299h-.951c-.027.027-.027.082-.054.109h0l1.087 1.25-.299.245-1.087-1.25c-.027 0-.027 0-.054.027h0v2.065h-.38v-2.065c-.027 0-.027 0-.054-.027h0l-1.141 1.25-.299-.245 1.141-1.25c-.027-.027-.027-.082-.054-.109h0-.978v-.299h3.125zm-5.136 0c.027.027.027.082.027.109 0 .136-.109.245-.272.245s-.272-.109-.272-.245c0-.054 0-.082.027-.109h0-.38V80c0 .272.19.489.435.571h0v.924h.38v-.924c.19-.054.326-.19.38-.353h0 1.06v-.326h-1.386z"/><path d="M52.473 76.821l.408.109v1.033l-.408.109v-1.25zm-.408 0l-.408.109v1.033l.408.109v-1.25zm1.413-1.196l.109-.38h1.087l.109.38h-1.304zm0 .353l.109.38h1.087l.109-.38h-1.304zm-1.495-.19c0-.136.109-.245.272-.245.136 0 .272.109.272.245s-.109.245-.272.245c-.136.027-.272-.082-.272-.245zm3.832 0c0-.136.109-.245.272-.245.136 0 .272.109.272.245s-.109.245-.272.245c-.136.027-.272-.082-.272-.245zm-1.033 4.049l-.109-.38h-1.087l-.109.38h1.304zm-3.723-4.212l-.109-.38h-1.087l-.109.38h1.304zm0 .353l-.109.38h-1.087l-.109-.38h1.304zm-2.88-.19c0-.136.109-.245.272-.245.136 0 .272.109.272.245s-.109.245-.272.245c-.136.027-.272-.082-.272-.245zm1.576 4.049l.109-.38h1.087l.109.38h-1.304zm4.837-2.147l.245.326-.679.788-.38-.163.815-.951zm-.299-.245l-.38-.163-.679.788.245.326.815-.951zm-4.375.272l-.217.326.707.788.38-.163-.87-.951zm.299-.217l.38-.163.707.788-.217.326-.87-.951zm6.06-.217l.408.109v1.005l-.408.109v-1.223zm-.408 0l-.408.109v1.005l.408.109v-1.223zm-7.228 0l.408.109v1.005l-.408.136v-1.25zm-.38 0l-.408.109v1.005l.408.109v-1.223zm4.212-.924v.761h-.38v-.761c-.19-.054-.353-.19-.408-.38h0-.951v-.353h.951c.082-.245.326-.408.598-.408s.516.163.598.408h0 .951v.353h-.951c-.082.19-.245.326-.408.38zm3.804 0v1.25h-.38v-1.25c-.027 0-.054-.027-.082-.027h0l-1.44 1.603-.299-.217 1.467-1.658c0-.027-.027-.054-.027-.082h0-1.06v-.353h1.06c.082-.245.326-.408.598-.408.353 0 .625.272.625.598-.027.245-.217.462-.462.543zm-7.582 0l1.44 1.603.299-.245-1.44-1.603c.027-.054.054-.082.054-.136h0 1.06v-.353h-1.06c-.082-.245-.326-.408-.598-.408-.353 0-.625.272-.625.598 0 .272.163.489.408.571h0v1.25h.38v-1.277h.082zm7.147 3.533c.054-.082.136-.136.245-.136s.19.054.245.136h0 .38a.59.59 0 0 0-.435-.435h0v-1.25h-.38v1.25c-.19.054-.326.19-.408.38h0-1.033v.054h1.386zm-5.136 0v-.054h.978c0-.027.027-.054.054-.082h0l-1.196-1.332.299-.245 1.168 1.304c.027 0 .027-.027.054-.027h0v-1.739h.38v1.739c.027 0 .054 0 .054.027h0l1.141-1.304.299.245-1.168 1.304c.027.054.054.109.054.136h0 .951v.027h-3.071zm-2.88 0a.59.59 0 0 1 .435-.435h0v-1.25h.38v1.25c.19.054.326.19.408.38h0 1.033v.054h-1.413c-.054-.082-.136-.136-.245-.136s-.19.054-.245.136h0-.353z"/></g><path d="M49.755 84.728c.353.272.734.462 1.141.598h0l-.299.272c-.326-.109-.652-.299-.951-.489h0l.109-.38zm.19-.326c.326.272.734.462 1.141.598h0l.082-.38a2.87 2.87 0 0 1-.951-.489h0l-.272.272zm-1.304-3.261l.408.082v.516c0-.163.054.516.054.516h0l-.408.136c-.054-.217-.054-.408-.054-.625h0v-.625zm-.326 1.277l-.408-.082-.054-1.005.408-.136v.571c-.027.217 0 .435.054.652zm.489 1.06a.29.29 0 0 1 .38-.027c.109.082.136.245.027.353a.29.29 0 0 1-.38.027c-.109-.082-.136-.245-.027-.353zm-.571-1.984v-.924c-.245-.082-.435-.299-.435-.571s.19-.489.435-.571h0v-1.25h.38v1.25c.19.054.326.19.408.38h0 1.033v.353h-1.06c-.054.163-.217.299-.38.353h0v.924l-.38.054zm2.011 3.098l-.19.326c-.326-.19-.625-.462-.87-.734-.19.054-.435.027-.598-.109-.272-.217-.299-.571-.054-.815h0l.027-.027c-.163-.353-.272-.734-.299-1.141h0 .38a2.88 2.88 0 0 0 .245.978c.109 0 .217 0 .326.027h0l.978-1.087.299.245-.978 1.087a.53.53 0 0 1-.027.652c.245.217.489.435.761.598zm-1.549-8.234l1.44 1.603.299-.245-1.44-1.603c.027-.054.054-.082.054-.136h0 1.06v-.353h-1.06c-.082-.245-.326-.408-.598-.408-.353 0-.625.272-.625.598 0 .272.163.489.408.571h0v1.25h.38v-1.277h.082zm3.043 3.94c-.027-.027-.027-.082-.054-.109h0-.978v-.353h.978c0-.027.027-.054.054-.082h0l-1.196-1.332.299-.245 1.168 1.304c.027 0 .027-.027.054-.027h0v-1.739h.38v1.739c.027 0 .054 0 .054.027h0l1.141-1.304.299.245-1.168 1.304c.027.054.054.082.054.136h0 .951v.353h-.951c-.027.027-.027.082-.054.109h0l1.087 1.25-.299.245-1.087-1.25c-.027 0-.027.027-.054.027h0v2.065h-.38v-2.065c-.027 0-.027 0-.054-.027h0l-1.141 1.25-.299-.245 1.196-1.277zm1.114 4.837a4.57 4.57 0 0 0 .87-.245h0l.19.326c-.326.136-.679.245-1.033.299-.054.272-.299.462-.598.462s-.543-.19-.598-.462c-.38-.054-.734-.136-1.087-.299h0l.19-.326c.299.109.598.217.924.245.082-.163.19-.272.353-.326h0v-1.603h.38v1.603c.19.054.353.19.408.326zm3.016-7.853l-.408.109v1.033l.408.109v-1.25zm-7.228 0l.408.109v1.033l-.408.109v-1.25zm-.38 0l-.408.109v1.033l.408.109v-1.25zm6.495 7.446c-.353.272-.734.462-1.141.598h0l.299.272c.326-.109.652-.299.951-.489h0l-.109-.38zm-.19-.326c-.326.272-.734.462-1.141.598h0l-.082-.38a2.87 2.87 0 0 0 .951-.489h0l.272.272zm-2.092-8.043v.761h-.38v-.761c-.19-.054-.353-.19-.408-.38h0-.951v-.353h.951c.082-.245.326-.408.598-.408s.516.163.598.408h0 .951v.353h-.951c-.082.19-.245.326-.408.38zm3.804 0v1.25h-.38v-1.25c-.027 0-.054-.027-.082-.027h0l-1.44 1.603-.299-.245 1.467-1.63c0-.027-.027-.054-.027-.082h0-1.06v-.353h1.06c.082-.245.326-.408.598-.408.353 0 .625.272.625.598-.027.245-.217.462-.462.543zm-.408 4.783l-.408.082-.027.516c0-.163-.054.516-.054.516h0l.408.136.054-.625h0v-.625h.027zm.353 1.277l.408-.082.054-1.005-.408-.136v.571c0 .217-.027.435-.054.652zm-.489 1.06c-.082-.109-.272-.109-.38-.027s-.136.245-.027.353a.29.29 0 0 0 .38.027c.109-.082.109-.245.027-.353zm.543-1.984v-.924c.245-.082.435-.299.435-.571s-.19-.489-.435-.571h0v-1.25h-.38v1.25c-.19.054-.326.19-.408.38h0-1.033v.353h1.06c.054.163.19.299.38.353h0v.924l.38.054zm-2.011 3.098l.19.326c.326-.19.625-.462.87-.734a.69.69 0 0 0 .598-.109c.272-.217.299-.571.082-.815h0l-.027-.027c.163-.353.272-.734.299-1.141h0-.38a2.88 2.88 0 0 1-.245.978c-.109-.027-.217 0-.326.027h0l-.978-1.087-.299.245.978 1.087a.53.53 0 0 0 .027.652c-.245.217-.489.435-.788.598zM48.179 80c0-.136.109-.245.272-.245.136 0 .272.109.272.245s-.109.245-.272.245-.272-.109-.272-.245zm1.793 2.255l-.217-.326.707-.788.38.163-.87.951zm.299.245l.38.163.707-.788-.217-.326-.87.951zm3.207-6.875l.109-.38h1.087l.109.38h-1.304zm0 .353l.109.38h1.087l.109-.38h-1.304zm-1.495-.19c0-.136.109-.245.272-.245.136 0 .272.109.272.245s-.109.245-.272.245c-.136.027-.272-.082-.272-.245zm3.832 0c0-.136.109-.245.272-.245.136 0 .272.109.272.245s-.109.245-.272.245c-.136.027-.272-.082-.272-.245zm-3.723 7.745l-.408-.109v-1.033l.408-.109v1.25zm.38 0l.408-.109v-1.033l-.408-.109v1.25zm-.462 1.848c0-.136.109-.245.272-.245.136 0 .272.109.272.245s-.109.245-.272.245c-.136 0-.272-.109-.272-.245zm2.772-5.19l-.109.38h-1.087l-.109-.38h1.304zm0-.353l-.109-.38h-1.087l-.109.38h1.304zm1.033.163c0-.136.109-.245.272-.245.136 0 .272.109.272.245s-.109.245-.272.245-.272-.109-.272-.245zm-4.755-4.375l-.109-.38h-1.087l-.109.38h1.304zm0 .353l-.109.38h-1.087l-.109-.38h1.304zm-2.88-.19c0-.136.109-.245.272-.245.136 0 .272.109.272.245s-.109.245-.272.245c-.136.027-.272-.082-.272-.245zm1.576 4.402l.109.38h1.087l.109-.38h-1.304zm0-.353l.109-.38h1.087l.109.38h-1.304zm4.837-2.147l.245.326-.679.788-.38-.163.815-.951zm-.299-.245l-.38-.163-.679.788.245.326.815-.951zm-4.375.272l-.217.326.707.761.38-.163-.87-.924zm.299-.245l.38-.163.707.788-.217.326-.87-.951zm4.321 4.783l.217-.326-.707-.788-.38.163.87.951zm-.299.245l-.38.163-.707-.788.217-.326.87.951zm2.038-5.217l.408.109v1.033l-.408.109v-1.25zm-3.804-.489l.408.109v1.033l-.408.109v-1.25zm-.408 0l-.408.109v1.033l.408.109v-1.25z" stroke="#c8b32f" class="B F"/><path d="M51.658 80c0-.326.272-.598.625-.598s.625.272.625.598-.272.598-.625.598-.625-.245-.625-.598z" class="N"/><use xlink:href="#h" class="I"/><use xlink:href="#h" class="B C D"/><path d="M54.13 64.076s0 .163.027.326-.054.272-.027.353.027.163.054.217.054.217.054.217-.082-.054-.163-.136c-.082-.054-.136-.109-.136-.109s.027.163.027.245.054.19.109.272.19.19.245.299c.027.136.027.353.027.353s-.109-.163-.19-.19-.299-.136-.299-.136.19.19.19.353-.082.353-.082.353-.082-.163-.19-.245c-.109-.109-.245-.217-.245-.217s.109.272.109.435l-.027.571s-.082-.136-.19-.217c-.082-.082-.19-.136-.245-.19-.027-.054.109.136.136.272.027.109.082.543.435 1.06.217.299.543.87 1.25.679s.435-1.141.299-1.576-.217-.924-.217-1.114c0-.163.136-.679.109-.761s-.054-.462.027-.761.163-.435.217-.543c.054-.136.082-.19.109-.299s.027-.326.027-.326l.163.326a1.95 1.95 0 0 1 .027.353s.027-.245.217-.38.435-.245.489-.326.082-.109.082-.109-.027.435-.136.598c-.082.109-.408.489-.408.489s.163-.054.272-.054h.19s-.136.109-.326.38-.109.299-.245.516-.245.217-.408.353c-.245.19-.109.978-.082 1.114.027.109.462 1.087.462 1.332s.054.761-.353 1.087c-.272.217-.707.217-.788.272-.109.054-.299.245-.299.652s.136.462.272.571c.109.109.272.054.299.136s.054.136.109.163c.054.054.082.109.054.19s-.217.272-.272.435c-.054.136-.19.516-.19.571s-.027.217.054.299c0 0 .217.245.054.299-.082.027-.163-.054-.217-.054-.136.027-.19.109-.217.109-.082-.027-.082-.054-.082-.163s0-.163-.027-.163c-.054 0-.082.054-.082.109s0 .217-.054.217-.136-.109-.19-.136-.19-.054-.19-.109.082-.19.163-.217.163-.054.109-.109a.1.1 0 0 0-.163 0c-.054.054-.19 0-.163-.054 0-.082.027-.163.027-.19s-.109-.109.027-.19.19.054.326.027.19-.082.245-.136c.054-.082.054-.245-.054-.353-.082-.109-.19-.109-.217-.19-.027-.054-.082-.217-.082-.217s.027.272 0 .326c-.027.027 0 .19 0 .19s-.082-.109-.163-.19-.136-.299-.136-.299v.299c0 .082.109.163.054.19-.027.027-.19-.163-.245-.19-.027-.027-.163-.136-.217-.245s-.109-.272-.109-.326c-.027-.054-.054-.299-.027-.353.054-.082.109-.245.109-.245h0-.326c-.163 0-.299-.054-.353.054s-.027.353.054.652.136.462.109.516-.136.19-.163.19a.3.3 0 0 1-.217 0c-.054-.027-.136-.054-.299-.054h-.299c-.054-.027-.19-.082-.272-.082-.054.027-.19.082-.136.163.054.136-.054.163-.109.163s-.109-.027-.217-.054c-.082-.027-.217 0-.19-.109.027-.082.054-.109.082-.163.027-.082.054-.109 0-.109s-.109 0-.163.027-.109.109-.163.082-.109-.109-.109-.245-.163-.272 0-.272c.136 0 .326.109.353.027s.027-.109-.054-.163-.163-.109-.082-.163c.109-.082.136-.082.163-.136.027-.027.082-.19.163-.136.136.054 0 .163.136.326a.42.42 0 0 0 .462.19c.245-.027.299-.054.299-.136 0-.054-.027-.19-.027-.245s.027-.217.027-.217-.109.054-.136.136c-.054 0-.136.109-.136.109s-.027-.136-.027-.245c0-.054.027-.19.027-.19 0-.054-.054-.217-.054-.217s-.027.163-.054.217-.027.245-.027.245-.163-.136-.109-.353c.027-.163-.027-.408.027-.462.054-.082.163-.38.462-.38h.625c.109 0 .462-.082.462-.082l-.815-.462c-.163-.109-.408-.38-.462-.489-.082-.109-.136-.353-.136-.353s-.109 0-.245.054c-.109.054-.217.163-.272.217s-.163.245-.163.245l.027-.272c0-.054-.027-.19-.027-.19s-.082.299-.217.408c-.163.109-.326.272-.326.272l.027-.19c0-.027.027-.217.027-.217s-.109.163-.272.19-.408.027-.435.136.054.245 0 .326c-.027.082-.136.109-.136.109s-.082-.082-.19-.082c-.082 0-.163.027-.163.027s-.082-.082-.054-.163c.027-.054.163-.163.109-.19-.027-.027-.136 0-.19.054s-.19.054-.19-.054.054-.163 0-.245a.09.09 0 0 1 .054-.136c.054-.027.245 0 .272-.054s-.054-.109-.19-.136-.19-.109-.136-.19l.136-.136c.027-.054.054-.163.163-.109s.109.19.217.217c.136.054.435-.027.489-.054s.272-.19.353-.217.353-.245.353-.245-.163-.109-.245-.19c-.054-.054-.19-.217-.245-.245s-.353-.136-.435-.136c-.109 0-.38-.109-.38-.109l.19-.082c.054-.027.136-.136.19-.109h.054s-.272 0-.326-.027-.217-.136-.299-.136c-.054 0-.19.027-.19.027s.163-.109.326-.136c.136-.027.245-.027.245-.027s-.217-.054-.272-.136a2.45 2.45 0 0 1-.136-.245c-.027-.054-.054-.136-.136-.136s-.19.082-.272.082-.136-.054-.136-.163 0-.054-.027-.136c-.027-.054-.136-.19-.027-.217s.299.027.326-.027c.027-.027-.109-.136-.19-.19s-.217-.109-.136-.163.136-.082.19-.136.082-.217.163-.163.19.299.272.272c.054-.027.082-.19.054-.272s0-.19.054-.19.109.109.217.109.245-.027.245.054-.082.163-.136.245c-.082.082-.109.245-.054.353s.163.272.272.326.299.109.408.19.408.299.489.326a1.81 1.81 0 0 1 .19.082s.109-.054.245-.054.489.027.625-.027.299-.136.245-.272c-.054-.109-.326-.217-.299-.299s.136-.109.299-.109.408.027.462-.217.054-.38-.19-.435-.435-.054-.462-.245c-.054-.19-.082-.217-.027-.272s.136-.082.326-.082c.19-.027.38-.027.435-.054.054-.054.082-.163.136-.217.082-.054.353-.082.353-.082a5.06 5.06 0 0 0 .625.38c.299.245.543.543.543.543z" fill="#eb71a9"/><path d="M54.13 64.076s0 .163.027.326-.054.272-.027.353.027.163.054.217.054.217.054.217-.082-.054-.163-.136c-.082-.054-.136-.109-.136-.109s.027.163.027.245.054.19.109.272.19.19.245.299c.027.136.027.353.027.353s-.109-.163-.19-.19-.299-.136-.299-.136.19.19.19.353-.082.353-.082.353-.082-.163-.19-.245c-.109-.109-.245-.217-.245-.217s.109.272.109.435l-.027.571s-.082-.136-.19-.217c-.082-.082-.19-.136-.245-.19-.027-.054.109.136.136.272.027.109.082.543.435 1.06.217.299.543.87 1.25.679s.435-1.141.299-1.576-.217-.924-.217-1.114c0-.163.136-.679.109-.761s-.054-.462.027-.761.163-.435.217-.543c.054-.136.082-.19.109-.299s.027-.326.027-.326l.163.326a1.95 1.95 0 0 1 .027.353s.027-.245.217-.38.435-.245.489-.326.082-.109.082-.109-.027.435-.136.598c-.082.109-.408.489-.408.489s.163-.054.272-.054h.19s-.136.109-.326.38-.109.299-.245.516-.245.217-.408.353c-.245.19-.109.978-.082 1.114.027.109.462 1.087.462 1.332s.054.761-.353 1.087c-.272.217-.707.217-.788.272-.109.054-.299.245-.299.652s.136.462.272.571c.109.109.272.054.299.136s.054.136.109.163c.054.054.082.109.054.19s-.217.272-.272.435c-.054.136-.19.516-.19.571s-.027.217.054.299c0 0 .217.245.054.299-.082.027-.163-.054-.217-.054-.136.027-.19.109-.217.109-.082-.027-.082-.054-.082-.163s0-.163-.027-.163c-.054 0-.082.054-.082.109s0 .217-.054.217-.136-.109-.19-.136-.19-.054-.19-.109.082-.19.163-.217.163-.054.109-.109a.1.1 0 0 0-.163 0c-.054.054-.19 0-.163-.054 0-.082.027-.163.027-.19s-.109-.109.027-.19.19.054.326.027.19-.082.245-.136c.054-.082.054-.245-.054-.353-.082-.109-.19-.109-.217-.19-.027-.054-.082-.217-.082-.217s.027.272 0 .326c-.027.027 0 .19 0 .19s-.082-.109-.163-.19-.136-.299-.136-.299v.299c0 .082.109.163.054.19-.027.027-.19-.163-.245-.19-.027-.027-.163-.136-.217-.245s-.109-.272-.109-.326c-.027-.054-.054-.299-.027-.353.054-.082.109-.245.109-.245h0-.326c-.163 0-.299-.054-.353.054s-.027.353.054.652.136.462.109.516-.136.19-.163.19a.3.3 0 0 1-.217 0c-.054-.027-.136-.054-.299-.054h-.299c-.054-.027-.19-.082-.272-.082-.054.027-.19.082-.136.163.054.136-.054.163-.109.163s-.109-.027-.217-.054c-.082-.027-.217 0-.19-.109.027-.082.054-.109.082-.163.027-.082.054-.109 0-.109s-.109 0-.163.027-.109.109-.163.082-.109-.109-.109-.245-.163-.272 0-.272c.136 0 .326.109.353.027s.027-.109-.054-.163-.163-.109-.082-.163c.109-.082.136-.082.163-.136.027-.027.082-.19.163-.136.136.054 0 .163.136.326a.42.42 0 0 0 .462.19c.245-.027.299-.054.299-.136 0-.054-.027-.19-.027-.245s.027-.217.027-.217-.109.054-.136.136c-.054 0-.136.109-.136.109s-.027-.136-.027-.245c0-.054.027-.19.027-.19 0-.054-.054-.217-.054-.217s-.027.163-.054.217-.027.245-.027.245-.163-.136-.109-.353c.027-.163-.027-.408.027-.462.054-.082.163-.38.462-.38h.625c.109 0 .462-.082.462-.082l-.815-.462c-.163-.109-.408-.38-.462-.489-.082-.109-.136-.353-.136-.353s-.109 0-.245.054c-.109.054-.217.163-.272.217s-.163.245-.163.245l.027-.272c0-.054-.027-.19-.027-.19s-.082.299-.217.408c-.163.109-.326.272-.326.272l.027-.19c0-.027.027-.217.027-.217s-.109.163-.272.19-.408.027-.435.136.054.245 0 .326c-.027.082-.136.109-.136.109s-.082-.082-.19-.082c-.082 0-.163.027-.163.027s-.082-.082-.054-.163c.027-.054.163-.163.109-.19-.027-.027-.136 0-.19.054s-.19.054-.19-.054.054-.163 0-.245a.09.09 0 0 1 .054-.136c.054-.027.245 0 .272-.054s-.054-.109-.19-.136-.19-.109-.136-.19l.136-.136c.027-.054.054-.163.163-.109s.109.19.217.217c.136.054.435-.027.489-.054s.272-.19.353-.217.353-.245.353-.245-.163-.109-.245-.19c-.054-.054-.19-.217-.245-.245s-.353-.136-.435-.136c-.109 0-.38-.109-.38-.109l.19-.082c.054-.027.136-.136.19-.109h.054s-.272 0-.326-.027-.217-.136-.299-.136c-.054 0-.19.027-.19.027s.163-.109.326-.136c.136-.027.245-.027.245-.027s-.217-.054-.272-.136a2.45 2.45 0 0 1-.136-.245c-.027-.054-.054-.136-.136-.136s-.19.082-.272.082-.136-.054-.136-.163 0-.054-.027-.136c-.027-.054-.136-.19-.027-.217s.299.027.326-.027c.027-.027-.109-.136-.19-.19s-.217-.109-.136-.163.136-.082.19-.136.082-.217.163-.163.19.299.272.272c.054-.027.082-.19.054-.272s0-.19.054-.19.109.109.217.109.245-.027.245.054-.082.163-.136.245c-.082.082-.109.245-.054.353s.163.272.272.326.299.109.408.19.408.299.489.326a1.81 1.81 0 0 1 .19.082s.109-.054.245-.054.489.027.625-.027.299-.136.245-.272c-.054-.109-.326-.217-.299-.299s.136-.109.299-.109.408.027.462-.217.054-.38-.19-.435-.435-.054-.462-.245c-.054-.19-.082-.217-.027-.272s.136-.082.326-.082c.19-.027.38-.027.435-.054.054-.054.082-.163.136-.217.082-.054.353-.082.353-.082a5.06 5.06 0 0 0 .625.38c.299.245.543.543.543.543" class="B C D"/><use xlink:href="#i"/><use xlink:href="#i" class="B C F"/><use xlink:href="#j"/><g class="B C"><use xlink:href="#j" class="L"/><path d="M53.94 64.973l-.109-.136c-.027-.027-.054-.109-.054-.109" class="F"/></g><use xlink:href="#k" class="I"/><use xlink:href="#k" class="B C D"/><use xlink:href="#l" class="I"/><use xlink:href="#l" class="B C D"/><use xlink:href="#m" class="I"/><use xlink:href="#m" class="B C D"/><path d="M51.766 64.783l.082-.109.082.109h-.163"/><path d="M51.766 64.783l.082-.109.082.109h-.163" class="B C F"/><path d="M51.957 64.783l.082-.109.109.109h-.19"/><path d="M51.957 64.783l.082-.109.109.109h-.19" class="B C F"/><path d="M51.875 64.049l.19.054-.163.082-.027-.136"/><path d="M51.875 64.049l.19.054-.163.082-.027-.136" class="B C F"/><path d="M52.092 64.103l.163.027-.109.109-.054-.136"/><g class="B C"><path d="M52.092 64.103l.163.027-.109.109-.054-.136" class="F"/><path d="M51.522 67.418l.326-.163c.163-.082.272-.245.272-.245m-1.522-.217s.109-.19.217-.245a1.45 1.45 0 0 0 .272-.19c.027 0 .217-.109.217-.109m-.462-.707s-.19.054-.245.163c-.082.109-.082.245-.082.245s.163-.136.353-.082.217.082.299.082.299-.082.299-.082-.163.19-.136.326.054.19.027.272c0 .163-.136.38-.136.38s.082-.054.245-.082.299-.109.408-.19c.082-.054.217-.217.217-.217s-.027.217 0 .326a4.07 4.07 0 0 1 .054.38s.109-.109.19-.136a.57.57 0 0 0 .217-.163c.027-.054.082-.245.082-.245s.027.217.082.299c.054.109.163.408.163.408s.054-.19.136-.272.163-.19.163-.245-.027-.19-.027-.19h0l.082.19" class="D"/></g><use xlink:href="#n" class="I"/><use xlink:href="#n" class="B C D"/><use xlink:href="#o" class="I"/><use xlink:href="#o" class="B C D"/><path d="M49.158 68.424s0 .19.082.299.245.136.245.136-.054-.109-.054-.19c-.027-.082.082-.163.082-.163s-.082-.082-.163-.082h-.19z" class="I"/><path d="M49.158 68.424s0 .19.082.299.245.136.245.136-.054-.109-.054-.19c-.027-.082.082-.163.082-.163s-.082-.082-.163-.082h-.19zm3.804.299s.462.299.462.516c0 .245-.245.543-.245.543" class="B C D"/><use xlink:href="#p" class="I"/><use xlink:href="#p" class="B C D"/><use xlink:href="#q" class="I"/><use xlink:href="#q" class="B C D"/><use xlink:href="#r" class="I"/><use xlink:href="#r" class="B C D"/><use xlink:href="#s" class="I"/><use xlink:href="#s" class="B C D"/><use xlink:href="#t" class="I"/><use xlink:href="#t" class="B C D"/><use xlink:href="#u" class="I"/><use xlink:href="#u" class="B C D"/><use xlink:href="#v" fill="#ffd791"/><use xlink:href="#v" class="B C H"/><use xlink:href="#w" class="N"/><use xlink:href="#w" class="B C H"/><use xlink:href="#x" class="N"/><use xlink:href="#x" class="B C H"/><use xlink:href="#y" class="G"/><use xlink:href="#y" class="B C H"/><use xlink:href="#z" class="N"/><use xlink:href="#z" class="B C H"/><path d="M42.065 65.027h.842-.842zm-1.576-1.25h.788-.788zm-1.63 1.25h.842-.842zm2.011-.679v-.408.408zm0 .842v-.435.435zm0 1.25v-.408.408zm0 .842v-.435.435zm0 1.685v-.435.435zm0-.842v-.408.408zm0 1.739v-.462.462zm1.63-4.674v.408-.408zm-.788.842v.408-.408zm1.576 0v.408-.408zm-.38.408v.435-.435zm-.842 0v.435-.435zm-.788 0v.435-.435zm.435.435v.435-.435zm.788 0v.435-.435zm.788 0v.435-.435zm-.38.408v.435-.435zm-.842 0v.435-.435zm-.788 0v.435-.435zm.435.435v.408-.408zm-.435.408v.435-.435zm0 .842v.408-.408zm.435.897v-.462.462zm-.435 0v.435-.435zm.788 0v.435-.435zm.842 0v.435-.435zm-1.196.788v-.38.38zm.353 0v.462-.462zm1.63.489v-.489.489zm-.788 0v-.489.489zm-.408-1.277v-.462.462zm0 .788v-.38.38zm0 .897v-.435.435zm0 .842v-.435.435zm.408-.408v-.435.435zm.788-.435v.435-.435zm-.408 0v-.435.435zm0 .842v-.435.435zm0-7.717h-1.576 1.576zm-.38.516h-.842.842zm-3.614 0v.408-.408zm.788.842v.408-.408zm-1.603 0v.408-.408zm.38.408v.435-.435zm.842 0v.435-.435zm.788 0v.435-.435zm-.408.435v.435-.435zm-.788 0v.435-.435zm-.815 0v.435-.435zm.38.408v.435-.435zm.842 0v.435-.435zm.788 0v.435-.435zm-.408.435v.408-.408zm.408.408v.435-.435zm0 .842v.408-.408zm-.408.897v-.462.462zm.408 0v.435-.435zm-.788 0v.435-.435zm-.842 0v.435-.435zm1.223.788v-.38.38zm-.38 0v.462-.462zm-1.63.489v-.489.489zm.788 0v-.489.489zm.435-1.277v-.462.462zm0 .788v-.38.38zm0 .897v-.435.435zm0 .842v-.435.435zm-.435-.408v-.435.435zm-.788-.435v.435-.435zm.408 0v-.435.435zm0 .842v-.435.435zm0-7.717h1.576-1.576zm.38.516h.842-.842zm1.223-1.793h1.63-1.63zm.408.516h.788-.788zm0 .435h.788-.788zm0 .408h.788-.788zm0 .435h.788-.788zm-1.63.408h4.049-4.049zm-.788.435h5.625-5.625zm0 .408h5.625-5.625zm0 .435h5.625-5.625zm0 .408h5.625-5.625zm.408.435h4.783-4.783zm0 .408h4.783-4.783zm0 .435h4.783-4.783zm0 .408h4.783-4.783zm0 .435h4.783-4.783zm0 .462h4.783-4.783zm0 .435h4.783-4.783zm-.842.353h6.467-6.467zm0 .489h6.467-6.467zm0 .408h6.467-6.467zm0 .435h6.467-6.467zm0 .408h6.467-6.467zm1.44-7.989h-.217v-.217h-.38v.842h.38v.571h-.788v1.685h.408v3.37h-.842v1.739h6.467v-1.739h-.842v-3.37h.435v-1.685h-.788v-.571h.38v-.842h-.38v.217h-.217v-.217h-.38v.217h-.272v-.217h-.38v.842h.38v.571h-.788V63.75h.408v-.842h-.408v.217h-.217v-.217h-.38v.217h-.163v-.217h-.408v.842h.408v1.848h-.788v-.571h.38v-.842h-.38v.217h-.217v-.217h-.408v.217z" class="E"/><path d="M42.065 65.027h.842-.842zm-1.576-1.25h.788zm-1.63 1.25h.842zm2.011-.679v-.408zm0 .842v-.435zm0 1.25v-.408zm0 .842v-.435zm0 1.685v-.435zm0-.842v-.408zm0 1.739v-.462zm1.63-4.674v.408zm-.788.842v.408zm1.576 0v.408zm-.38.408v.435zm-.842 0v.435zm-.788 0v.435zm.435.435v.435zm.788 0v.435zm.788 0v.435zm-.38.408v.435zm-.842 0v.435zm-.788 0v.435zm.435.435v.408zm-.435.408v.435zm0 .842v.408zm.435.897v-.462zm-.435 0v.435zm.788 0v.435zm.842 0v.435zm-1.196.788v-.38zm.353 0v.462zm1.63.489v-.489zm-.788 0v-.489zm-.408-1.277v-.462zm0 .788v-.38zm0 .897v-.435zm0 .842v-.435zm.408-.408v-.435zm.788-.435v.435zm-.408 0v-.435zm0 .842v-.435zm0-7.717h-1.576zm-.38.516h-.842zm-3.614 0v.408zm.788.842v.408zm-1.603 0v.408zm.38.408v.435zm.842 0v.435zm.788 0v.435zm-.408.435v.435zm-.788 0v.435zm-.815 0v.435zm.38.408v.435zm.842 0v.435zm.788 0v.435zm-.408.435v.408zm.408.408v.435zm0 .842v.408zm-.408.897v-.462zm.408 0v.435zm-.788 0v.435zm-.842 0v.435zm1.223.788v-.38zm-.38 0v.462zm-1.63.489v-.489zm.788 0v-.489zm.435-1.277v-.462zm0 .788v-.38zm0 .897v-.435zm0 .842v-.435zm-.435-.408v-.435zm-.788-.435v.435zm.408 0v-.435zm0 .842v-.435zm0-7.717h1.576zm.38.516h.842zm1.223-1.793h1.63zm.408.516h.788zm0 .435h.788zm0 .408h.788zm0 .435h.788zm-1.63.408h4.049zm-.788.435h5.625zm0 .408h5.625zm0 .435h5.625zm0 .408h5.625zm.408.435h4.783zm0 .408h4.783zm0 .435h4.783zm0 .408h4.783zm0 .435h4.783zm0 .462h4.783zm0 .435h4.783zm-.842.353h6.467zm0 .489h6.467zm0 .408h6.467zm0 .435h6.467zm0 .408h6.467zm1.44-7.989h-.217v-.217h-.38v.842h.38v.571h-.788v1.685h.408v3.37h-.842v1.739h6.467v-1.739h-.842v-3.37h.435v-1.685h-.788v-.571h.38v-.842h-.38v.217h-.217v-.217h-.38v.217h-.272v-.217h-.38v.842h.38v.571h-.788V63.75h.408v-.842h-.408v.217h-.217v-.217h-.38v.217h-.163v-.217h-.408v.842h.408v1.848h-.788v-.571h.38v-.842h-.38v.217h-.217v-.217h-.408v.217z" class="B C J"/><use xlink:href="#AA" class="E"/><use xlink:href="#AA" class="B C J"/><use xlink:href="#AB" class="E"/><use xlink:href="#AB" class="B C J"/><use xlink:href="#AC" class="E"/><use xlink:href="#AC" class="B C J"/><use xlink:href="#AD" class="E"/><use xlink:href="#AD" class="B C J"/><use xlink:href="#AE" class="E"/><use xlink:href="#AE" class="B C J"/><use xlink:href="#AF" class="E"/><use xlink:href="#AF" class="B C J"/><path d="M41.277 66.658l.109-1.06H40.38l.054 1.06h.842" class="E"/><path d="M41.277 66.658l.109-1.06H40.38l.054 1.06h.842" class="B C J"/><path d="M42.065 66.658l-.109-1.06h1.06l-.109 1.06h-.842" class="E"/><path d="M42.065 66.658l-.109-1.06h1.06l-.109 1.06h-.842" class="B C J"/><path d="M39.701 66.658l.054-1.06H38.75l.109 1.06h.842" class="E"/><path d="M39.701 66.658l.054-1.06H38.75l.109 1.06h.842" class="B C J"/><path d="M41.603 72.391v-.924c0-.163-.109-.625-.734-.625a.63.63 0 0 0-.679.625h0v.951h1.413v-.027zm-1.63-2.989v-1.005c0-.272-.163-.516-.462-.516s-.462.272-.462.516h0v1.005h.924zm1.848 0v-1.005c0-.272.163-.516.462-.516s.489.272.489.516h0v1.005h-.951z" fill="#3a57a7"/><use xlink:href="#AG" class="E"/><use xlink:href="#AG" class="B C F"/><use xlink:href="#AH"/><use xlink:href="#AH" class="B C L"/><use xlink:href="#AI"/><use xlink:href="#AI" class="B C L"/><use xlink:href="#AJ"/><use xlink:href="#AJ" class="B C L"/><path d="M53.071 63.016c0-.027.027-.027.054 0s.027.027 0 .054h-.054v-.054z"/><path d="M53.071 63.016c0-.027.027-.027.054 0s.027.027 0 .054h-.054v-.054z" class="B C L"/><path d="M53.94 63.614v-.054h-.054v.054c0 .027.054 0 .054 0z"/><path d="M53.94 63.614v-.054h-.054v.054c0 .027.054 0 .054 0z" class="B C L"/><path d="M54.076 63.75l.054.054h.027v-.027l-.027-.054-.054-.054h-.054v.027l.054.054"/><path d="M54.076 63.75l.054.054h.027v-.027l-.027-.054-.054-.054h-.054v.027l.054.054" class="B C L"/><path d="M54.293 63.94v-.054c-.027-.027-.054-.027-.054 0v.054h.054z"/><path d="M54.293 63.94v-.054c-.027-.027-.054-.027-.054 0v.054h.054z" class="B C L"/><path d="M53.668 62.554h-.136l-.027.217.027.027h.027l.163-.109-.054-.136" class="E"/><path d="M53.668 62.554h-.136l-.027.217.027.027h.027l.163-.109-.054-.136" class="B C F"/><path d="M53.315 62.663l-.027.136.217.027.027-.027v-.027l-.109-.163-.109.054" class="E"/><path d="M53.315 62.663l-.027.136.217.027.027-.027v-.027l-.109-.163-.109.054" class="B C F"/><path d="M53.75 62.908l-.136.082-.109-.163v-.054h.027l.217.027v.109" class="E"/><path d="M53.75 62.908l-.136.082-.109-.163v-.054h.027l.217.027v.109" class="B C F"/><use xlink:href="#AK" class="E"/><use xlink:href="#AK" class="B C F"/><use xlink:href="#AL" class="E"/><use xlink:href="#AL" class="B C F"/><path d="M53.207 62.636l-.082.082-.163-.136v-.027l.027-.027.19-.027.027.136" class="E"/><path d="M53.207 62.636l-.082.082-.163-.136v-.027l.027-.027.19-.027.027.136" class="B C F"/><use xlink:href="#AM" class="E"/><use xlink:href="#AM" class="B C F"/><path d="M54.185 62.88h-.136l-.054.19v.027h.054l.19-.082-.054-.136" class="E"/><path d="M54.185 62.88h-.136l-.054.19v.027h.054l.19-.082-.054-.136" class="B C F"/><path d="M53.804 62.935l-.027.136.217.054.027-.027v-.027l-.082-.163-.136.027" class="E"/><path d="M53.804 62.935l-.027.136.217.054.027-.027v-.027l-.082-.163-.136.027" class="B C F"/><path d="M54.212 63.234l-.136.054-.082-.163v-.054h.027l.19.054v.109" class="E"/><path d="M54.212 63.234l-.136.054-.082-.163v-.054h.027l.19.054v.109" class="B C F"/><path d="M53.94 63.071a.05.05 0 0 1 .082 0 .05.05 0 0 1 0 .082.05.05 0 0 1-.082 0v-.082z" class="E"/><path d="M53.94 63.071a.05.05 0 0 1 .082 0 .05.05 0 0 1 0 .082.05.05 0 0 1-.082 0v-.082z" class="B C F"/><path d="M54.647 63.315v.109l-.19.082-.027-.027v-.027l.082-.19.136.054" class="E"/><path d="M54.647 63.315v.109l-.19.082-.027-.027v-.027l.082-.19.136.054" class="B C F"/><path d="M54.592 63.668l-.109.027-.082-.19v-.027h.054l.19.082-.054.109" class="E"/><path d="M54.592 63.668l-.109.027-.082-.19v-.027h.054l.19.082-.054.109" class="B C F"/><path d="M54.266 63.315l-.054.109.19.082h.027l.027-.027-.082-.19-.109.027" class="E"/><path d="M54.266 63.315l-.054.109.19.082h.027l.027-.027-.082-.19-.109.027" class="B C F"/><use xlink:href="#AN" class="E"/><use xlink:href="#AN" class="B C F"/><use xlink:href="#AO" class="E"/><use xlink:href="#AO" class="B C F"/><path d="M54.647 63.75l-.054.109.163.109.027-.027h.027l-.027-.19h-.136" class="E"/><path d="M54.647 63.75l-.054.109.163.109.027-.027h.027l-.027-.19h-.136" class="B C F"/><use xlink:href="#AP" class="E"/><g class="B C"><use xlink:href="#AP" class="F"/><path d="M46.576 74.158h11.467v-12.69H46.576v12.69" class="H"/></g><defs ><path id="B" d="M27.582 63.913c.027-.027.054-.027.082-.027h0 3.804c.027 0 .082 0 .109.027-.136-.054-.217-.163-.217-.299a.32.32 0 0 1 .245-.299c-.027 0-.082.027-.109.027h0-3.804c-.027 0-.082 0-.109-.027h0 .027c.136.054.217.163.217.299a.39.39 0 0 1-.245.299z"/><path id="C" d="M27.663 63.886h3.804c.136 0 .245.082.245.19s-.109.19-.245.19h0-3.804c-.136 0-.245-.082-.245-.19.027-.109.136-.19.245-.19z"/><path id="D" d="M27.663 63.016h3.804c.136 0 .245.082.245.163s-.109.163-.245.163h0-3.804c-.136 0-.245-.082-.245-.163.027-.082.136-.163.245-.163z"/><path id="E" d="M33.125 85.435c-.353 0-.652-.082-.897-.19-.217-.109-.543-.19-.87-.19-.353 0-.652.082-.897.19-.217.109-.543.19-.897.19s-.652-.082-.897-.217c-.217-.109-.543-.19-.87-.19-.353 0-.652.082-.87.19-.245.109-.543.19-.897.19h0v.543c.353 0 .679-.082.897-.19s.543-.19.87-.19.625.082.87.19c.217.109.543.19.897.19a2.19 2.19 0 0 0 .897-.19c.217-.109.543-.19.897-.19s.652.082.87.19c.245.109.543.19.897.19h0v-.516z"/><path id="F" d="M33.125 85.978c-.353 0-.652-.082-.897-.19-.217-.109-.543-.19-.87-.19-.353 0-.652.082-.897.19-.217.109-.543.19-.897.19s-.652-.082-.897-.19c-.217-.109-.543-.19-.87-.19-.353 0-.652.082-.87.19-.245.109-.543.19-.897.19h0v.543c.353 0 .679-.082.897-.19s.543-.19.87-.19.625.082.87.19c.217.109.543.217.897.217s.652-.082.897-.19c.217-.109.543-.19.897-.19s.652.082.87.19c.245.109.543.19.897.19h0v-.571z"/><path id="G" d="M33.125 86.522c-.353 0-.652-.082-.897-.19-.217-.109-.543-.19-.87-.19a2.19 2.19 0 0 0-.897.19c-.217.109-.543.19-.897.19s-.652-.082-.897-.217c-.217-.109-.543-.19-.87-.19-.353 0-.652.082-.87.19-.245.109-.543.19-.897.19h0v.543c.353 0 .679-.082.897-.19s.543-.19.87-.19.625.054.87.19c.217.109.543.19.897.19s.652-.082.897-.19c.217-.109.543-.19.897-.19s.652.082.87.19c.245.109.543.19.897.19h0v-.516z"/><path id="H" d="M33.125 87.636c-.353 0-.652-.082-.897-.19-.217-.109-.543-.19-.87-.19a2.19 2.19 0 0 0-.897.19c-.217.109-.543.19-.897.19s-.652-.082-.897-.217c-.217-.109-.543-.19-.87-.19-.353 0-.652.054-.87.19-.245.109-.543.19-.897.19h0v-.543c.353 0 .679-.082.897-.217.217-.109.543-.19.87-.19s.625.054.87.19c.217.109.543.19.897.19a2.19 2.19 0 0 0 .897-.19c.217-.109.543-.19.897-.19s.652.082.87.19c.245.109.543.19.897.19h0v.598z"/><path id="I" d="M33.125 88.179c-.353 0-.652-.082-.897-.19-.217-.109-.543-.19-.87-.19-.353 0-.652.082-.897.19-.217.109-.543.19-.897.19s-.652-.082-.897-.19c-.217-.109-.543-.19-.87-.19-.353 0-.652.082-.87.19-.245.109-.543.19-.897.19h0v-.543c.353 0 .679-.082.897-.217.217-.109.543-.19.87-.19s.625.082.87.19c.217.109.543.217.897.217s.652-.082.897-.19c.217-.109.543-.19.897-.19s.652.082.87.19c.245.136.543.19.897.19h0v.543z"/><path id="J" d="M27.582 83.179c0 .054.027.082.027.136 0 .326-.299.598-.652.598h0 5.217c-.353 0-.652-.272-.652-.598 0-.054 0-.082.027-.136h-.109 0-3.804-.054z"/><path id="K" d="M27.663 82.826h3.804c.136 0 .245.082.245.163 0 .109-.109.19-.245.19h0-3.804c-.136 0-.245-.082-.245-.19.027-.082.136-.163.245-.163z"/><path id="L" d="M26.576 78.125c-.516.299-.87.598-.815.761.027.136.19.245.435.408.38.272.598.707.408.924a1.3 1.3 0 0 0 .489-1.033 1.3 1.3 0 0 0-.516-1.06z"/><path id="M" d="M35.217 71.25c-.815-.326-2.174-.571-3.75-.625-.543 0-1.141.054-1.766.163-2.201.38-3.913 1.25-3.777 1.984v.054l-.842-1.929c-.136-.788 1.712-1.793 4.185-2.201.761-.136 1.522-.19 2.174-.163 1.576 0 2.935.19 3.777.516h0v2.201z"/><path id="N" d="M27.717 73.533c-1.033-.082-1.739-.353-1.821-.788-.054-.353.272-.734.897-1.06l.924.054h0v1.793z"/><path id="O" d="M31.44 72.147c.652.109 1.114.245 1.359.462h0l.027.027c.109.245-.462.734-1.386 1.304h0v-1.793z"/><path id="P" d="M25.408 77.038c-.109-.299.897-.87 2.31-1.386l1.848-.761c1.957-.87 3.424-1.875 3.234-2.228h0l-.027-.027c.109.082.272 1.875.272 1.875.163.326-1.141 1.304-2.962 2.174-.571.272-1.793.734-2.391.924-1.033.353-2.065 1.033-1.957 1.277h0l-.326-1.848z"/><path id="Q" d="M65.571 63.913c-.027-.027-.054-.027-.082-.027h0-3.804c-.027 0-.082 0-.109.027.136-.054.217-.163.217-.299a.32.32 0 0 0-.245-.299c.027 0 .082.027.109.027h0 3.804c.027 0 .082 0 .109-.027h0-.027c-.136.054-.217.163-.217.299a.39.39 0 0 0 .245.299z"/><path id="R" d="M61.685 63.886h3.804c.136 0 .245.082.245.19s-.109.19-.245.19h0-3.804c-.136 0-.245-.082-.245-.19s.109-.19.245-.19z"/><path id="S" d="M61.685 63.016h3.804c.136 0 .245.082.245.163s-.109.163-.245.163h0-3.804c-.136 0-.245-.082-.245-.163s.109-.163.245-.163z"/><path id="T" d="M60.027 85.435c.353 0 .652-.082.897-.19.217-.109.543-.19.87-.19.353 0 .652.082.897.19.217.109.543.19.897.19s.652-.082.897-.217c.217-.109.543-.19.87-.19.353 0 .652.082.87.19s.543.19.897.19h0v.543c-.353 0-.679-.082-.897-.19s-.543-.19-.87-.19-.625.082-.87.19c-.217.109-.543.19-.897.19a2.19 2.19 0 0 1-.897-.19c-.217-.109-.543-.19-.897-.19s-.652.082-.87.19-.543.19-.897.19h0v-.516z"/><path id="U" d="M60.027 85.978c.353 0 .652-.082.897-.19.217-.109.543-.19.87-.19.353 0 .652.082.897.19.217.109.543.19.897.19s.652-.082.897-.19c.217-.109.543-.19.87-.19.353 0 .652.082.87.19s.543.19.897.19h0v.543c-.353 0-.679-.082-.897-.19s-.543-.19-.87-.19-.625.082-.87.19c-.217.109-.543.217-.897.217s-.652-.082-.897-.19-.543-.19-.897-.19-.652.082-.87.19-.543.19-.897.19h0v-.571z"/><path id="V" d="M60.027 86.522c.353 0 .652-.082.897-.19.217-.109.543-.19.87-.19a2.19 2.19 0 0 1 .897.19c.217.109.543.19.897.19s.652-.082.897-.217c.217-.109.543-.19.87-.19.353 0 .652.082.87.19s.543.19.897.19h0v.543c-.353 0-.679-.082-.897-.19s-.543-.19-.87-.19-.625.054-.87.19c-.217.109-.543.19-.897.19s-.652-.082-.897-.19c-.217-.109-.543-.19-.897-.19s-.652.082-.87.19-.543.19-.897.19h0v-.516z"/><path id="W" d="M60.027 87.636c.353 0 .652-.082.897-.19.217-.109.543-.19.87-.19a2.19 2.19 0 0 1 .897.19c.217.109.543.19.897.19s.652-.082.897-.217c.217-.109.543-.19.87-.19.353 0 .652.054.87.19s.543.19.897.19h0v-.543c-.353 0-.679-.082-.897-.217-.217-.109-.543-.19-.87-.19s-.625.054-.87.19c-.217.109-.543.19-.897.19a2.19 2.19 0 0 1-.897-.19c-.217-.109-.543-.19-.897-.19s-.652.082-.87.19-.543.19-.897.19h0v.598z"/><path id="X" d="M60.027 88.179c.353 0 .652-.082.897-.19.217-.109.543-.19.87-.19.353 0 .652.082.897.19.217.109.543.19.897.19s.652-.082.897-.19c.217-.109.543-.19.87-.19.353 0 .652.082.87.19s.543.19.897.19h0v-.543c-.353 0-.679-.082-.897-.217s-.543-.19-.87-.19-.625.082-.87.19c-.217.109-.543.217-.897.217s-.652-.082-.897-.19c-.217-.109-.543-.19-.897-.19s-.652.082-.87.19c-.217.136-.543.19-.897.19h0v.543z"/><path id="Y" d="M65.571 83.179c0 .054-.027.082-.027.136 0 .326.299.598.652.598h0-5.217c.353 0 .652-.272.652-.598 0-.054 0-.082-.027-.136h.109 0 3.804.054z"/><path id="Z" d="M61.685 82.826h3.804c.136 0 .245.082.245.163 0 .109-.109.19-.245.19h0-3.804c-.136 0-.245-.082-.245-.19 0-.082.109-.163.245-.163z"/><path id="a" d="M66.603 78.125c.516.299.87.598.815.761-.027.136-.19.245-.435.408-.38.272-.598.707-.408.924a1.3 1.3 0 0 1-.489-1.033 1.17 1.17 0 0 1 .516-1.06z"/><path id="b" d="M57.935 71.25c.815-.326 2.174-.571 3.75-.625.543 0 1.141.054 1.766.163 2.228.38 3.913 1.25 3.777 1.984v.054l.842-1.929c.136-.788-1.712-1.793-4.185-2.201-.761-.136-1.522-.19-2.174-.163-1.576 0-2.935.19-3.777.516h0v2.201z"/><path id="c" d="M65.435 73.533c1.033-.082 1.739-.353 1.821-.788.054-.353-.272-.734-.897-1.06l-.924.054h0v1.793z"/><path id="d" d="M61.712 72.147c-.652.109-1.114.245-1.359.462h0l-.027.027c-.109.245.462.734 1.386 1.304h0v-1.793z"/><path id="e" d="M67.745 77.038c.109-.299-.897-.87-2.31-1.386l-1.848-.761c-1.957-.87-3.424-1.875-3.234-2.228h0l.027-.027c-.109.082-.272 1.875-.272 1.875-.19.326 1.141 1.304 2.962 2.174.571.272 1.793.734 2.391.924 1.033.353 2.065 1.033 1.957 1.277h0l.326-1.848z"/><path id="f" d="M46.63 88.533a19.39 19.39 0 0 1-8.424-1.957c-1.821-.897-3.043-2.745-3.043-4.837h0v-7.554h22.88v7.582c0 2.092-1.223 3.913-3.043 4.837-2.473 1.196-5.38 1.929-8.37 1.929z"/><path id="g" d="M58.043 74.158v7.609c0 2.989-2.582 5.435-5.734 5.435-3.179 0-5.734-2.418-5.734-5.435h0v-7.609h11.467z"/><path id="h" d="M52.418 64.592v-.136l.027-.082s-.38.027-.571-.027-.353-.136-.543-.272c-.19-.163-.245-.245-.38-.272-.299-.054-.543.082-.543.082a.94.94 0 0 0 .408.299c.163.217.353.326.435.353.136.027.598 0 .734.027.163 0 .435.027.435.027z"/><path id="i" d="M51.766 63.913s-.027-.109-.054-.136c0-.027-.027-.054-.027-.054s.19 0 .19.054-.054.054-.082.082c0 0-.027.054-.027.054z"/><path id="j" d="M52.69 63.587l-.027-.109s.163 0 .245.054c.136.082.217.245.217.245-.027.027-.136-.054-.19-.082h-.109c-.054 0-.082-.027-.082-.054v-.082h0l-.054.027z"/><path id="k" d="M49.212 63.859a.42.42 0 0 0 .19.082h.19s.027-.136.027-.217c-.054-.272-.299-.326-.299-.326s.082.163.027.245c-.027.136-.136.217-.136.217z"/><path id="l" d="M48.696 64.103s-.109-.163-.299-.163c-.217.027-.353.19-.353.19s.217 0 .272.027c.082.054.109.19.109.19s.136-.082.163-.136c.054-.027.109-.109.109-.109z"/><path id="m" d="M48.451 64.81s-.163.027-.272.136-.082.326-.082.326.109-.136.217-.136a2.1 2.1 0 0 1 .272.027s-.054-.136-.054-.19-.082-.163-.082-.163z"/><path id="n" d="M49.022 67.12s-.109-.109-.272-.082-.272.217-.272.217.136-.027.217-.027c.082.027.136.109.136.109s.082-.054.109-.109c.054 0 .082-.109.082-.109z"/><path id="o" d="M48.832 67.799s-.136-.027-.272.082c-.109.109-.136.299-.136.299s.109-.109.217-.082c.082 0 .19.054.19.054l.027-.136c.027-.109-.027-.217-.027-.217z"/><path id="p" d="M50.842 70.027s-.109-.136-.272-.136-.326.163-.326.163.19-.027.245.054l.109.163.136-.082c.027-.054.109-.163.109-.163z"/><path id="q" d="M50.353 70.679s-.217-.027-.326.082-.109.299-.109.299.136-.136.245-.136.245.082.245.082-.027-.109-.027-.19c0-.054-.027-.136-.027-.136z"/><path id="r" d="M50.815 71.359s-.109.136-.027.272a.58.58 0 0 0 .245.163s-.054-.082-.027-.19c.027-.082.163-.19.163-.19h0l-.353-.054z"/><path id="s" d="M53.641 71.63s-.19-.054-.299.027c-.109.054-.19.326-.19.326s.163-.136.299-.136l.217.054s.027-.109 0-.19c0-.027-.027-.082-.027-.082z"/><path id="t" d="M53.723 72.31s-.136.136-.082.272l.136.245s0-.19.054-.245c.082-.082.245-.082.245-.082s-.136-.109-.163-.109-.19-.082-.19-.082z"/><path id="u" d="M54.429 72.527s-.082.19.054.299.245.136.245.136-.109-.19-.082-.272c.027-.109.136-.163.136-.163l-.19-.054c0-.027-.163.054-.163.054z"/><path id="v" d="M47.174 85.163c.462.136.707.489.707.924 0 .543-.516.951-1.196.951s-1.223-.408-1.223-.951c0-.408.217-.87.707-.897l-.054-.109c-.054-.054-.136-.163-.136-.163s.19-.027.272 0c.109.054.163.109.163.109s.054-.109.109-.163c.054-.082.163-.109.163-.109s.109.082.136.136a1.28 1.28 0 0 1 .054.136s.109-.082.19-.109l.19-.054s-.027.109-.054.163c-.027.027-.027.136-.027.136z"/><path id="w" d="M46.576 87.636s-.897-.598-1.304-.707c-.516-.109-1.06-.027-1.304-.027l.408.326a2.2 2.2 0 0 0 .788.435c.734.19 1.413-.027 1.413-.027z"/><path id="x" d="M46.848 87.69s.571-.598 1.196-.679c.707-.109 1.196.054 1.467.136l-.353.19c-.136.082-.435.353-.951.353-.489 0-1.033-.054-1.141-.027-.082 0-.217.027-.217.027z"/><path id="y" d="M46.658 86.929c-.217-.217-.38-.516-.38-.842s.136-.625.38-.842c.217.217.353.516.353.842.027.326-.109.625-.353.842z"/><path id="z" d="M46.44 88.152s.136-.353.163-.652c0-.245-.027-.489-.027-.489h0 .19a2.06 2.06 0 0 0 .082.489c0 .217-.027.543-.027.543l-.163.027c-.082.054-.217.082-.217.082z"/><path id="AA" d="M41.957 72.391v-1.114c0-.217-.109-.842-1.114-.842-.951 0-1.06.625-1.06.842h0v1.114h2.174z"/><path id="AB" d="M40.163 71.359l-.516-.054c0-.217.054-.516.217-.625h0l.462.38a.46.46 0 0 0-.163.299z"/><path id="AC" d="M41.603 71.359l.516-.054c0-.217-.054-.516-.217-.625h0l-.462.38a.46.46 0 0 1 .163.299z"/><path id="AD" d="M41.06 70.815l.272-.462a1.28 1.28 0 0 0-.462-.109 1.01 1.01 0 0 0-.408.109h0l.272.462h.326z"/><path id="AE" d="M40.082 69.511v-1.168a.54.54 0 0 0-.571-.571c-.353 0-.571.272-.571.571h0v1.168h1.141z"/><path id="AF" d="M41.712 69.511v-1.168a.54.54 0 0 1 .571-.571c.38 0 .571.272.571.571h0v1.168h-1.141z"/><path id="AG" d="M53.995 63.098h-.054s-.027.054-.054.082c-.054.054-.136.054-.19.027-.027-.027-.027-.054-.027-.082-.027.027-.082.027-.109 0-.054-.027-.082-.109-.027-.19l.027-.027h0v-.082l-.082.027-.027.054c-.054.054-.136.082-.163.027-.027-.027-.027-.054-.027-.054l-.027.027c-.136.027-.163-.245-.163-.299h0l-.027.054s.027.163.027.299l-.054.272c.163.054.435.19.679.38s.462.408.543.543c0 0 .136-.082.272-.109.136-.054.299-.054.299-.054h0l.054-.054c-.082 0-.353.027-.353-.109 0-.027.027-.054.027-.054s-.054 0-.054-.027c-.054-.027-.054-.109 0-.163h0l.054-.027v-.082h-.082l-.027.027c-.054.054-.136.054-.19 0-.027-.027-.027-.054-.027-.109h-.109c-.054-.027-.082-.109-.027-.19.027-.027.054-.082.082-.082h0l-.163-.027z"/><path id="AH" d="M53.505 63.261c0-.027.027-.027.054 0 .027 0 .027.027 0 .054h-.054c-.027-.027-.027-.054 0-.054z"/><path id="AI" d="M53.723 63.424l-.082-.054s-.027-.027 0-.027h.027 0l.082.054.082.054s.027.027 0 .027h-.054 0l-.054-.054z"/><path id="AJ" d="M53.315 63.152l-.054-.027c-.027 0-.027-.027-.027-.027h.027 0l.054.027.054.027.027.027h-.027 0l-.054-.027z"/><path id="AK" d="M53.478 62.772c.027-.027.054-.054.082-.027s.054.054.027.082-.054.027-.082.027c-.054-.027-.054-.054-.027-.082z"/><path id="AL" d="M52.962 62.554s-.027-.109-.054-.163-.082-.109-.082-.109.109-.054.19.027 0 .19 0 .19-.027.054-.054.054z"/><path id="AM" d="M52.962 62.554c0-.027.027-.054.054-.054s.027.054.027.082-.027.054-.054.054c-.054-.027-.054-.054-.027-.082z"/><path id="AN" d="M54.457 63.533a.05.05 0 0 0 0-.082.05.05 0 0 0-.082 0 .05.05 0 0 0 0 .082.05.05 0 0 0 .082 0z"/><path id="AO" d="M54.783 63.94s.109 0 .19.027c.054 0 .109.054.109.054s.027-.109-.054-.19c-.082-.054-.19.054-.19.054s-.054.027-.054.054z"/><path id="AP" d="M54.81 63.967c.027-.027.054-.054.027-.082a.05.05 0 0 0-.082 0c-.027.027-.054.054-.027.082a.05.05 0 0 0 .082 0z"/></defs></svg>