<svg xmlns="http://www.w3.org/2000/svg" width="47.923" height="41.263" viewBox="0 0 47.923 41.263">
  <g id="Group_10348" data-name="Group 10348" transform="translate(-169.208 -225.641)">
    <rect id="Rectangle_4012" data-name="Rectangle 4012" width="35.69" height="18.258" transform="translate(175.325 240.239)" fill="#fff"/>
    <path id="Icon_awesome-store" data-name="Icon awesome-store" d="M45.761,9.327,40.827,1.18A2.416,2.416,0,0,0,38.767,0H8.057A2.416,2.416,0,0,0,6,1.18L1.064,9.327c-2.547,4.207-.289,10.058,4.47,10.726a7.641,7.641,0,0,0,1.041.071,7.4,7.4,0,0,0,5.61-2.6,7.347,7.347,0,0,0,11.22,0,7.347,7.347,0,0,0,11.22,0,7.424,7.424,0,0,0,5.61,2.6,7.559,7.559,0,0,0,1.041-.071C46.05,19.392,48.315,13.542,45.761,9.327ZM40.25,22.648a9.341,9.341,0,0,1-2.242-.3V30.2H8.817V22.349a9.753,9.753,0,0,1-2.242.3,9.921,9.921,0,0,1-1.368-.094A9.287,9.287,0,0,1,3.96,22.27V37.746a2.473,2.473,0,0,0,2.432,2.516H40.447a2.473,2.473,0,0,0,2.432-2.516V22.27a7.54,7.54,0,0,1-1.247.283A10.225,10.225,0,0,1,40.25,22.648Z" transform="translate(169.756 226.141)" fill="#b3aced" stroke="#b3aced" stroke-width="1"/>
  </g>
</svg>
