<svg xmlns="http://www.w3.org/2000/svg" width="13.03" height="10.614" viewBox="0 0 13.03 10.614">
  <g id="Group_2794" data-name="Group 2794" transform="translate(-64.052 -162.133)">
    <path id="Path_2335" data-name="Path 2335" d="M13.95,6.237a2.725,2.725,0,0,0,2.79-2.653,2.793,2.793,0,0,0-5.58,0A2.725,2.725,0,0,0,13.95,6.237Zm1.395.884h-.11a3.842,3.842,0,0,1-2.569,0h-.11a3.354,3.354,0,0,0-1.619.426,3.941,3.941,0,0,1,1.154,2.758v1.061c0,.061-.015.119-.017.177H17.2A1.362,1.362,0,0,0,18.6,10.217a3.177,3.177,0,0,0-3.255-3.1Z" transform="translate(58.483 161.203)" fill="#e3ddfb"/>
    <path id="Path_2336" data-name="Path 2336" d="M5.126,5.97A2.936,2.936,0,0,0,8.01,2.985,2.936,2.936,0,0,0,5.126,0,2.936,2.936,0,0,0,2.243,2.985,2.936,2.936,0,0,0,5.126,5.97Zm2.563.663h-1.1a3.379,3.379,0,0,1-2.92,0h-1.1A2.609,2.609,0,0,0,0,9.287v.332a.979.979,0,0,0,.961,1h8.33a.979.979,0,0,0,.961-1V9.287A2.609,2.609,0,0,0,7.69,6.634Z" transform="translate(64.052 162.133)" fill="#7b68ee"/>
  </g>
</svg>
